<svg xmlns="http://www.w3.org/2000/svg" viewBox="0 0 560 700" width="100%" style="max-width:560px;height:auto;display:block;margin:0 auto;" xmlns:c2pa="http://c2pa.org/manifest"><metadata><c2pa:manifest>AAAWgmp1bWIAAAAeanVtZGMycGEAEQAQgAAAqgA4m3EDYzJwYQAAABZcanVtYgAAAEdqdW1kYzJtYQARABCAAACqADibcQN1cm46YzJwYTo3NWI0M2IzNS1iNjcxLTQ0YzMtOWVlNS0wMmNmY2E3NWRmZjIAAAADl2p1bWIAAAApanVtZGMyYXMAEQAQgAAAqgA4m3EDYzJwYS5hc3NlcnRpb25zAAAAALxqdW1iAAAARGp1bWRjYm9yABEAEIAAAKoAOJtxE2MycGEuaW5ncmVkaWVudC52MwAAAAAYYzJzaDfoPLBAIq5e3RLi/fhbc+MAAABwY2JvcqNpZGM6Zm9ybWF0bWltYWdlL3N2Zyt4bWxqaW5zdGFuY2VJRHgseG1wOmlpZDo2NDRiYWJhOC05YzY2LTRjMzItOWMyNS05ZWJlZTUyZDRmMDFscmVsYXRpb25zaGlwaHBhcmVudE9mAAAB4mp1bWIAAABBanVtZGNib3IAEQAQgAAAqgA4m3ETYzJwYS5hY3Rpb25zLnYyAAAAABhjMnNowbJjoLb2BvXhoiUZRq30EwAAAZljYm9yomdhY3Rpb25zgqJmYWN0aW9ua2MycGEub3BlbmVkanBhcmFtZXRlcnOha2luZ3JlZGllbnRzgaJjdXJseC1zZWxmI2p1bWJmPWMycGEuYXNzZXJ0aW9ucy9jMnBhLmluZ3JlZGllbnQudjNkaGFzaFgg2qLORE9s14UQkfnBzZQD6hoE6wL/oC4o3EBtJ9Km41OkZmFjdGlvbngdY29tLmFudGhyb3BpYy5jbGF1ZGUucHJvdmlkZWRqcGFyYW1ldGVyc6F4H2NvbS5hbnRocm9waWMub3JpZ2luLWNvbmZpZGVuY2VndW5rbm93bmtkZXNjcmlwdGlvbnhmQ2xhdWRlIHByb3ZpZGVkIHRoaXMgZmlsZSBhdCB0aGUgcmVxdWVzdCBvZiBhIHVzZXIgYW5kIG1heSBoYXZlIGNyZWF0ZWQgb3IgbW9kaWZpZWQgdGhlIGZpbGUgY29udGVudHMubXNvZnR3YXJlQWdlbnShZG5hbWVmQ2xhdWRlcmFsbEFjdGlvbnNJbmNsdWRlZPUAAADIanVtYgAAAEBqdW1kY2JvcgARABCAAACqADibcRNjMnBhLmhhc2guZGF0YQAAAAAYYzJzaG9m3+K8V450msoiBy/BkTAAAACAY2JvcqVjYWxnZnNoYTI1NmNwYWRNAAAAAAAAAAAAAAAAAGRoYXNoWCDLNCeLhfyIxSk1GQYuBculHdHf03XlwzPRq7QlQ09n6WRuYW1lbmp1bWJmIG1hbmlmZXN0amV4Y2x1c2lvbnOBomVzdGFydBjLZmxlbmd0aBkeBAAAAj5qdW1iAAAAJ2p1bWRjMmNsABEAEIAAAKoAOJtxA2MycGEuY2xhaW0udjIAAAACD2Nib3KlY2FsZ2ZzaGEyNTZpc2lnbmF0dXJleE1zZWxmI2p1bWJmPS9jMnBhL3VybjpjMnBhOjc1YjQzYjM1LWI2NzEtNDRjMy05ZWU1LTAyY2ZjYTc1ZGZmMi9jMnBhLnNpZ25hdHVyZWppbnN0YW5jZUlEeCx4bXA6aWlkOmY2NTFlMmIzLTk4ZGItNGMxOC1iM2EwLTQ3MGE3ZTE1MjBmZHJjcmVhdGVkX2Fzc2VydGlvbnODomN1cmx4LXNlbGYjanVtYmY9YzJwYS5hc3NlcnRpb25zL2MycGEuaW5ncmVkaWVudC52M2RoYXNoWCDaos5ET2zXhRCR+cHNlAPqGgTrAv+gLijcQG0n0qbjU6JjdXJseCpzZWxmI2p1bWJmPWMycGEuYXNzZXJ0aW9ucy9jMnBhLmFjdGlvbnMudjJkaGFzaFggcSltoXgmt9SnmAzU+rnQ7d4pp36bWnjCOjzUW7aHkO6iY3VybHgpc2VsZiNqdW1iZj1jMnBhLmFzc2VydGlvbnMvYzJwYS5oYXNoLmRhdGFkaGFzaFgggFpxS3S7e16LnpwLT73Rt7kLwgwqdcPHShlYAFfipy90Y2xhaW1fZ2VuZXJhdG9yX2luZm+jZG5hbWVvQW50aHJvcGljIEZpbGVzZ3ZlcnNpb25lMS4wLjBrc3BlY1ZlcnNpb25lMi40LjAAABA4anVtYgAAAChqdW1kYzJjcwARABCAAACqADibcQNjMnBhLnNpZ25hdHVyZQAAABAIY2JvctKEWQISogEmGCFZAgowggIGMIIBjaADAgECAhRA5aAK7sI50L64g/oGQgU9Z1UTADAKBggqhkjOPQQDAzBJMRcwFQYDVQQKEw5BbnRocm9waWMsIFBCQzEuMCwGA1UEAxMlQW50aHJvcGljIENvbnRlbnQgQ3JlZGVudGlhbHMgUm9vdCBDQTAeFw0yNjA4MDcxODQzNTZaFw0yODA4MDYxOTQzNTZaMEQxFzAVBgNVBAoTDkFudGhyb3BpYywgUEJDMSkwJwYDVQQDEyBBbnRocm9waWMgQ2xhdWRlIENvbnRlbnQgU2lnbmluZzBZMBMGByqGSM49AgEGCCqGSM49AwEHA0IABJh6CmvLUBgFFNU0vUKlOVtE6djd17L5SuwX0LemFisBM3dkd/3cyjxFA3Qo5S46fX0/ihY0VZ7mfb9KF703t5OjWDBWMA4GA1UdDwEB/wQEAwIHgDAVBgNVHSUEDjAMBgorBgEEAYPoXgIBMAwGA1UdEwEB/wQCMAAwHwYDVR0jBBgwFoAUzlHiBIFOZFsj+OPEz5o+nMHXXMIwCgYIKoZIzj0EAwMDZwAwZAIwMXMdFJ4BetLLVY7ORuE9noqbbAZOZn/aArXyTwFAZfKrPzxF2vPoJNf1+UCdg1XGAjBwX1zd9WGqYkqmL5SFqw1QySjr1zJfpJM9+1rdDwSPLMOPOjKuiXjoU/pUUeG9RwmhY3BhZFkNngAAAAAAAAAAAAAAAAAAAAAAAAAAAAAAAAAAAAAAAAAAAAAAAAAAAAAAAAAAAAAAAAAAAAAAAAAAAAAAAAAAAAAAAAAAAAAAAAAAAAAAAAAAAAAAAAAAAAAAAAAAAAAAAAAAAAAAAAAAAAAAAAAAAAAAAAAAAAAAAAAAAAAAAAAAAAAAAAAAAAAAAAAAAAAAAAAAAAAAAAAAAAAAAAAAAAAAAAAAAAAAAAAAAAAAAAAAAAAAAAAAAAAAAAAAAAAAAAAAAAAAAAAAAAAAAAAAAAAAAAAAAAAAAAAAAAAAAAAAAAAAAAAAAAAAAAAAAAAAAAAAAAAAAAAAAAAAAAAAAAAAAAAAAAAAAAAAAAAAAAAAAAAAAAAAAAAAAAAAAAAAAAAAAAAAAAAAAAAAAAAAAAAAAAAAAAAAAAAAAAAAAAAAAAAAAAAAAAAAAAAAAAAAAAAAAAAAAAAAAAAAAAAAAAAAAAAAAAAAAAAAAAAAAAAAAAAAAAAAAAAAAAAAAAAAAAAAAAAAAAAAAAAAAAAAAAAAAAAAAAAAAAAAAAAAAAAAAAAAAAAAAAAAAAAAAAAAAAAAAAAAAAAAAAAAAAAAAAAAAAAAAAAAAAAAAAAAAAAAAAAAAAAAAAAAAAAAAAAAAAAAAAAAAAAAAAAAAAAAAAAAAAAAAAAAAAAAAAAAAAAAAAAAAAAAAAAAAAAAAAAAAAAAAAAAAAAAAAAAAAAAAAAAAAAAAAAAAAAAAAAAAAAAAAAAAAAAAAAAAAAAAAAAAAAAAAAAAAAAAAAAAAAAAAAAAAAAAAAAAAAAAAAAAAAAAAAAAAAAAAAAAAAAAAAAAAAAAAAAAAAAAAAAAAAAAAAAAAAAAAAAAAAAAAAAAAAAAAAAAAAAAAAAAAAAAAAAAAAAAAAAAAAAAAAAAAAAAAAAAAAAAAAAAAAAAAAAAAAAAAAAAAAAAAAAAAAAAAAAAAAAAAAAAAAAAAAAAAAAAAAAAAAAAAAAAAAAAAAAAAAAAAAAAAAAAAAAAAAAAAAAAAAAAAAAAAAAAAAAAAAAAAAAAAAAAAAAAAAAAAAAAAAAAAAAAAAAAAAAAAAAAAAAAAAAAAAAAAAAAAAAAAAAAAAAAAAAAAAAAAAAAAAAAAAAAAAAAAAAAAAAAAAAAAAAAAAAAAAAAAAAAAAAAAAAAAAAAAAAAAAAAAAAAAAAAAAAAAAAAAAAAAAAAAAAAAAAAAAAAAAAAAAAAAAAAAAAAAAAAAAAAAAAAAAAAAAAAAAAAAAAAAAAAAAAAAAAAAAAAAAAAAAAAAAAAAAAAAAAAAAAAAAAAAAAAAAAAAAAAAAAAAAAAAAAAAAAAAAAAAAAAAAAAAAAAAAAAAAAAAAAAAAAAAAAAAAAAAAAAAAAAAAAAAAAAAAAAAAAAAAAAAAAAAAAAAAAAAAAAAAAAAAAAAAAAAAAAAAAAAAAAAAAAAAAAAAAAAAAAAAAAAAAAAAAAAAAAAAAAAAAAAAAAAAAAAAAAAAAAAAAAAAAAAAAAAAAAAAAAAAAAAAAAAAAAAAAAAAAAAAAAAAAAAAAAAAAAAAAAAAAAAAAAAAAAAAAAAAAAAAAAAAAAAAAAAAAAAAAAAAAAAAAAAAAAAAAAAAAAAAAAAAAAAAAAAAAAAAAAAAAAAAAAAAAAAAAAAAAAAAAAAAAAAAAAAAAAAAAAAAAAAAAAAAAAAAAAAAAAAAAAAAAAAAAAAAAAAAAAAAAAAAAAAAAAAAAAAAAAAAAAAAAAAAAAAAAAAAAAAAAAAAAAAAAAAAAAAAAAAAAAAAAAAAAAAAAAAAAAAAAAAAAAAAAAAAAAAAAAAAAAAAAAAAAAAAAAAAAAAAAAAAAAAAAAAAAAAAAAAAAAAAAAAAAAAAAAAAAAAAAAAAAAAAAAAAAAAAAAAAAAAAAAAAAAAAAAAAAAAAAAAAAAAAAAAAAAAAAAAAAAAAAAAAAAAAAAAAAAAAAAAAAAAAAAAAAAAAAAAAAAAAAAAAAAAAAAAAAAAAAAAAAAAAAAAAAAAAAAAAAAAAAAAAAAAAAAAAAAAAAAAAAAAAAAAAAAAAAAAAAAAAAAAAAAAAAAAAAAAAAAAAAAAAAAAAAAAAAAAAAAAAAAAAAAAAAAAAAAAAAAAAAAAAAAAAAAAAAAAAAAAAAAAAAAAAAAAAAAAAAAAAAAAAAAAAAAAAAAAAAAAAAAAAAAAAAAAAAAAAAAAAAAAAAAAAAAAAAAAAAAAAAAAAAAAAAAAAAAAAAAAAAAAAAAAAAAAAAAAAAAAAAAAAAAAAAAAAAAAAAAAAAAAAAAAAAAAAAAAAAAAAAAAAAAAAAAAAAAAAAAAAAAAAAAAAAAAAAAAAAAAAAAAAAAAAAAAAAAAAAAAAAAAAAAAAAAAAAAAAAAAAAAAAAAAAAAAAAAAAAAAAAAAAAAAAAAAAAAAAAAAAAAAAAAAAAAAAAAAAAAAAAAAAAAAAAAAAAAAAAAAAAAAAAAAAAAAAAAAAAAAAAAAAAAAAAAAAAAAAAAAAAAAAAAAAAAAAAAAAAAAAAAAAAAAAAAAAAAAAAAAAAAAAAAAAAAAAAAAAAAAAAAAAAAAAAAAAAAAAAAAAAAAAAAAAAAAAAAAAAAAAAAAAAAAAAAAAAAAAAAAAAAAAAAAAAAAAAAAAAAAAAAAAAAAAAAAAAAAAAAAAAAAAAAAAAAAAAAAAAAAAAAAAAAAAAAAAAAAAAAAAAAAAAAAAAAAAAAAAAAAAAAAAAAAAAAAAAAAAAAAAAAAAAAAAAAAAAAAAAAAAAAAAAAAAAAAAAAAAAAAAAAAAAAAAAAAAAAAAAAAAAAAAAAAAAAAAAAAAAAAAAAAAAAAAAAAAAAAAAAAAAAAAAAAAAAAAAAAAAAAAAAAAAAAAAAAAAAAAAAAAAAAAAAAAAAAAAAAAAAAAAAAAAAAAAAAAAAAAAAAAAAAAAAAAAAAAAAAAAAAAAAAAAAAAAAAAAAAAAAAAAAAAAAAAAAAAAAAAAAAAAAAAAAAAAAAAAAAAAAAAAAAAAAAAAAAAAAAAAAAAAAAAAAAAAAAAAAAAAAAAAAAAAAAAAAAAAAAAAAAAAAAAAAAAAAAAAAAAAAAAAAAAAAAAAAAAAAAAAAAAAAAAAAAAAAAAAAAAAAAAAAAAAAAAAAAAAAAAAAAAAAAAAAAAAAAAAAAAAAAAAAAAAAAAAAAAAAAAAAAAAAAAAAAAAAAAAAAAAAAAAAAAAAAAAAAAAAAAAAAAAAAAAAAAAAAAAAAAAAAAAAAAAAAAAAAAAAAAAAAAAAAAAAAAAAAAAAAAAAAAAAAAAAAAAAAAAAAAAAAAAAAAAAAAAAAAAAAAAAAAAAAAAAAAAAAAAAAAAAAAAAAAAAAAAAAAAAAAAAAAAAAAAAAAAAAAAAAAAAAAAAAAAAAAAAAAAAAAAAAAAAAAAAAAAAAAAAAAAAAAAAAAAAAAAAAAAAAAAAAAAAAAAAAAAAAAAAAAAAAAAAAAAAAAAAAAAAAAAAAAAAAAAAAAAAAAAAAAAAAAAAAAAAAAAAAAAAAAAAAAAAAAAAAAAAAAAAAAAAAAAAAAAAAAAAAAAAAAAAAAAAAAAAAAAAAAAAAAAAAAAAAAAAAAAAAAAAAAAAAAAAAAAAAAAAAAAAAAAAAAAAAAAAAAAAAAAAAAAAAAAAAAAAAAAAAAAAAAAAAAAAAAAAAAAAAAAAAAAAAAAAAAAAAAAAAAAAAAAAAAAAAAAAAAAAAAAAAAAAAAAAAAAAAAAAAAAAAAAAAAAAAAAAAAAAAAAAAAAAAAAAAAAAAAAAAAAAAAAAAAAAAAAAAAAAAAAAAAAAAAAAAAAAAAAAAAAAAAAAAAAAAAAAAAAAAAAAAAAAAAAAAAAAAAAAAAAAAAAAAAAAAAAAAAAAAAAAAAAAAAAAAAAAAAAAAAAAAAAAAAAAAAAAAAAAAAAAAAAAAAAAAAAAAAAAAAAAAAAAAAAAAAAAAAAAAAAAAAAAAAAAAAAAAAAAAAAAAAAAAAAAAAAAAAAAAAAAAAAAAAAAAAAAAAAAAAAAAAAAAAAAAAAAAAAAAAAAAAAAAAAAAAAAAAAAAAAAAAAAAAAAAAAAAAAAAAAAAAAAAAAAAAAAAAAAAAAAAAAAAAAAAAAAAAAAAAAAAAAAAAAAAAAAAAAAAAAAAAAAAAAAAAAAAAAAAAAAAAAAAAAAAAAAAAAAAAAAAAAAAAAAAAAAAAAAAAAAAAAAAAAAAAAAAAAAAAAAAAAAAAAAAAAAAAAAAAAAAAAAAAAAAAAAAAAAAAAAAAAAAAAAAAAAAAAAAAAAAAAAAAAAAAAAAAAAAAAAAAAAAAAAAAAAAAAAAAAAAAAAAAAAAAAAAAAAAAAAAAAAAAAAAAAAAAAAAAAAAAAAAAAAAAAAAAAAAAAAAAAAAAAAAAAAAAAAAAAAAAAAAAAAAAAAAAAAAAAAAAAAAAAAAAAAAAAAAAAAAAAAAAAAAAAAAAAAAAAAAAAAAAAAAAAAAAAAAAAAAAAAAAAAAAAAAAAAAAAAAAAAAAAAAAAAAAAAAAAAAAAAAAAAAAAAAAAAAAAAAAAAAAAAAAAAAAAAAAAAAAAAAAAAAAAAAAAAAAAAAAAAAAAAAAAAAAAAAAAAAAAAAAAAAAAAAAAAAAAAAAAAAAAAAAAAAAAAAAAAAAAAAAAAPZYQLHNdnvdkELHW2f41ZbpbdMdT8cDXv+oehkCI1UIhjV//igeyH0ABEME3h+I35kz9AYlvxlWbUMPJQpuNPl751Y=</c2pa:manifest></metadata>
<rect x="30" y="44" width="240" height="150" rx="4" fill="#f4f7fb" stroke="#9db4d0" stroke-width="1.3" stroke-dasharray="6 4"/>
<text x="46" y="68" text-anchor="start" font-family="Arial" font-size="15" font-weight="bold" fill="#004a99">Faculty</text>
<text x="46" y="88" text-anchor="start" font-family="Arial" font-size="13.5" font-weight="normal" fill="#6b6b6b">VLAN 10  192.168.10.0/24</text>
<g transform="translate(123.00 100.00) scale(1.42989)"><path d="M31.9771 28.6426L31.9771 22.7363L0.5034 22.7363L0.5034 28.6426L31.9771 28.6426" fill="#026C9B"/><path d="M31.9771 28.6426L31.9771 22.7363L0.5034 22.7363L0.5034 28.6426L31.9771 28.6426Z" fill="none" stroke="#FFFFFF" stroke-width="0.4"/><path d="M22.3374 26.0801L30.2759 26.0801" fill="#026C9B"/><path d="M22.3374 26.0801L30.2759 26.0801Z" fill="none" stroke="#FFFFFF" stroke-width="0.4"/><path d="M22.3374 25.7969L30.2759 25.7969" fill="#026C9B"/><path d="M22.3374 25.7969L30.2759 25.7969Z" fill="none" stroke="#FFFFFF" stroke-width="0.4"/><path d="M37.2612 23.043L37.2612 17.7588L31.9731 22.7598L31.9731 28.6426L37.2612 23.043" fill="#026C9B"/><path d="M37.2612 23.043L37.2612 17.7588L31.9731 22.7598L31.9731 28.6426L37.2612 23.043Z" fill="none" stroke="#FFFFFF" stroke-width="0.4"/><path d="M26.3872 33.4551L26.3872 32.1465L29.2466 28.1738L29.2466 30.5957L26.3872 33.4551" fill="#026C9B"/><path d="M26.3872 33.4551L26.3872 32.1465L29.2466 28.1738L29.2466 30.5957L26.3872 33.4551Z" fill="none" stroke="#FFFFFF" stroke-width="0.4"/><path d="M26.3872 32.1465L26.3872 33.4551L1.2007 33.4551L1.2007 32.1465L26.3872 32.1465" fill="#026C9B"/><path d="M26.3872 32.1465L26.3872 33.4551L1.2007 33.4551L1.2007 32.1465L26.3872 32.1465Z" fill="none" stroke="#FFFFFF" stroke-width="0.4"/><path d="M26.3872 32.1465L1.2007 32.1465L4.1147 28.1738L29.2466 28.1738L26.3872 32.1465" fill="#026C9B"/><path d="M26.3872 32.1465L1.2007 32.1465L4.1147 28.1738L29.2466 28.1738L26.3872 32.1465Z" fill="none" stroke="#FFFFFF" stroke-width="0.4"/><path d="M37.2612 17.7588L5.7778 17.7588L0.5034 22.7363L31.9771 22.7363L37.2612 17.7588" fill="#026C9B"/><path d="M37.2612 17.7588L5.7778 17.7588L0.5034 22.7363L31.9771 22.7363L37.2612 17.7588Z" fill="none" stroke="#FFFFFF" stroke-width="0.4"/><path d="M27.8335 19.8184L27.8335 3.8984L6.1333 3.8984L6.1333 19.8184L27.8335 19.8184" fill="#026C9B"/><path d="M27.8335 19.8184L27.8335 3.8984L6.1333 3.8984L6.1333 19.8184L27.8335 19.8184Z" fill="none" stroke="#FFFFFF" stroke-width="0.4"/><path d="M7.9663 7.3926C7.9663 5.7959 9.6216 5.5596 9.6216 5.5596C9.6216 5.5596 22.394 5.5596 23.9312 5.5596C25.9419 5.5596 25.8823 7.4512 25.8823 7.4512C25.8823 7.4512 25.8823 15.2568 25.8823 16.3809C25.8823 17.5039 24.3452 17.9766 24.3452 17.9766C24.3452 17.9766 11.2778 17.9766 9.8579 17.9766C8.439 17.9766 7.9663 16.498 7.9663 16.498L7.9663 7.3926" fill="#026C9B"/><path d="M7.9663 7.3926C7.9663 5.7959 9.6216 5.5596 9.6216 5.5596C9.6216 5.5596 22.394 5.5596 23.9312 5.5596C25.9419 5.5596 25.8823 7.4512 25.8823 7.4512C25.8823 7.4512 25.8823 15.2568 25.8823 16.3809C25.8823 17.5039 24.3452 17.9766 24.3452 17.9766C24.3452 17.9766 11.2778 17.9766 9.8579 17.9766C8.439 17.9766 7.9663 16.498 7.9663 16.498L7.9663 7.3926Z" fill="none" stroke="#FFFFFF" stroke-width="0.4"/><path d="M31.4702 0.4746L9.769 0.4746L6.1333 3.8984L27.8335 3.8984L31.4702 0.4746" fill="#026C9B"/><path d="M31.4702 0.4746L9.769 0.4746L6.1333 3.8984L27.8335 3.8984L31.4702 0.4746Z" fill="none" stroke="#FFFFFF" stroke-width="0.4"/><path d="M31.4712 16.4297L31.4712 0.4668L27.8696 3.8984L27.8696 19.8184L31.4712 16.4297" fill="#026C9B"/><path d="M31.4712 16.4297L31.4712 0.4668L27.8696 3.8984L27.8696 19.8184L31.4712 16.4297Z" fill="none" stroke="#FFFFFF" stroke-width="0.4"/></g>
<text x="150" y="176" text-anchor="middle" font-family="Arial" font-size="14" font-weight="normal" fill="#333333">Faculty PC</text>
<rect x="290" y="44" width="240" height="150" rx="4" fill="#f4f7fb" stroke="#9db4d0" stroke-width="1.3" stroke-dasharray="6 4"/>
<text x="306" y="68" text-anchor="start" font-family="Arial" font-size="15" font-weight="bold" fill="#004a99">Student lab</text>
<text x="306" y="88" text-anchor="start" font-family="Arial" font-size="13.5" font-weight="normal" fill="#6b6b6b">VLAN 20  192.168.20.0/24</text>
<g transform="translate(328.00 100.00) scale(1.42989)"><path d="M31.9771 28.6426L31.9771 22.7363L0.5034 22.7363L0.5034 28.6426L31.9771 28.6426" fill="#026C9B"/><path d="M31.9771 28.6426L31.9771 22.7363L0.5034 22.7363L0.5034 28.6426L31.9771 28.6426Z" fill="none" stroke="#FFFFFF" stroke-width="0.4"/><path d="M22.3374 26.0801L30.2759 26.0801" fill="#026C9B"/><path d="M22.3374 26.0801L30.2759 26.0801Z" fill="none" stroke="#FFFFFF" stroke-width="0.4"/><path d="M22.3374 25.7969L30.2759 25.7969" fill="#026C9B"/><path d="M22.3374 25.7969L30.2759 25.7969Z" fill="none" stroke="#FFFFFF" stroke-width="0.4"/><path d="M37.2612 23.043L37.2612 17.7588L31.9731 22.7598L31.9731 28.6426L37.2612 23.043" fill="#026C9B"/><path d="M37.2612 23.043L37.2612 17.7588L31.9731 22.7598L31.9731 28.6426L37.2612 23.043Z" fill="none" stroke="#FFFFFF" stroke-width="0.4"/><path d="M26.3872 33.4551L26.3872 32.1465L29.2466 28.1738L29.2466 30.5957L26.3872 33.4551" fill="#026C9B"/><path d="M26.3872 33.4551L26.3872 32.1465L29.2466 28.1738L29.2466 30.5957L26.3872 33.4551Z" fill="none" stroke="#FFFFFF" stroke-width="0.4"/><path d="M26.3872 32.1465L26.3872 33.4551L1.2007 33.4551L1.2007 32.1465L26.3872 32.1465" fill="#026C9B"/><path d="M26.3872 32.1465L26.3872 33.4551L1.2007 33.4551L1.2007 32.1465L26.3872 32.1465Z" fill="none" stroke="#FFFFFF" stroke-width="0.4"/><path d="M26.3872 32.1465L1.2007 32.1465L4.1147 28.1738L29.2466 28.1738L26.3872 32.1465" fill="#026C9B"/><path d="M26.3872 32.1465L1.2007 32.1465L4.1147 28.1738L29.2466 28.1738L26.3872 32.1465Z" fill="none" stroke="#FFFFFF" stroke-width="0.4"/><path d="M37.2612 17.7588L5.7778 17.7588L0.5034 22.7363L31.9771 22.7363L37.2612 17.7588" fill="#026C9B"/><path d="M37.2612 17.7588L5.7778 17.7588L0.5034 22.7363L31.9771 22.7363L37.2612 17.7588Z" fill="none" stroke="#FFFFFF" stroke-width="0.4"/><path d="M27.8335 19.8184L27.8335 3.8984L6.1333 3.8984L6.1333 19.8184L27.8335 19.8184" fill="#026C9B"/><path d="M27.8335 19.8184L27.8335 3.8984L6.1333 3.8984L6.1333 19.8184L27.8335 19.8184Z" fill="none" stroke="#FFFFFF" stroke-width="0.4"/><path d="M7.9663 7.3926C7.9663 5.7959 9.6216 5.5596 9.6216 5.5596C9.6216 5.5596 22.394 5.5596 23.9312 5.5596C25.9419 5.5596 25.8823 7.4512 25.8823 7.4512C25.8823 7.4512 25.8823 15.2568 25.8823 16.3809C25.8823 17.5039 24.3452 17.9766 24.3452 17.9766C24.3452 17.9766 11.2778 17.9766 9.8579 17.9766C8.439 17.9766 7.9663 16.498 7.9663 16.498L7.9663 7.3926" fill="#026C9B"/><path d="M7.9663 7.3926C7.9663 5.7959 9.6216 5.5596 9.6216 5.5596C9.6216 5.5596 22.394 5.5596 23.9312 5.5596C25.9419 5.5596 25.8823 7.4512 25.8823 7.4512C25.8823 7.4512 25.8823 15.2568 25.8823 16.3809C25.8823 17.5039 24.3452 17.9766 24.3452 17.9766C24.3452 17.9766 11.2778 17.9766 9.8579 17.9766C8.439 17.9766 7.9663 16.498 7.9663 16.498L7.9663 7.3926Z" fill="none" stroke="#FFFFFF" stroke-width="0.4"/><path d="M31.4702 0.4746L9.769 0.4746L6.1333 3.8984L27.8335 3.8984L31.4702 0.4746" fill="#026C9B"/><path d="M31.4702 0.4746L9.769 0.4746L6.1333 3.8984L27.8335 3.8984L31.4702 0.4746Z" fill="none" stroke="#FFFFFF" stroke-width="0.4"/><path d="M31.4712 16.4297L31.4712 0.4668L27.8696 3.8984L27.8696 19.8184L31.4712 16.4297" fill="#026C9B"/><path d="M31.4712 16.4297L31.4712 0.4668L27.8696 3.8984L27.8696 19.8184L31.4712 16.4297Z" fill="none" stroke="#FFFFFF" stroke-width="0.4"/></g>
<text x="355" y="176" text-anchor="middle" font-family="Arial" font-size="14" font-weight="normal" fill="#333333">Lab PC1</text>
<g transform="translate(438.00 100.00) scale(1.42989)"><path d="M31.9771 28.6426L31.9771 22.7363L0.5034 22.7363L0.5034 28.6426L31.9771 28.6426" fill="#026C9B"/><path d="M31.9771 28.6426L31.9771 22.7363L0.5034 22.7363L0.5034 28.6426L31.9771 28.6426Z" fill="none" stroke="#FFFFFF" stroke-width="0.4"/><path d="M22.3374 26.0801L30.2759 26.0801" fill="#026C9B"/><path d="M22.3374 26.0801L30.2759 26.0801Z" fill="none" stroke="#FFFFFF" stroke-width="0.4"/><path d="M22.3374 25.7969L30.2759 25.7969" fill="#026C9B"/><path d="M22.3374 25.7969L30.2759 25.7969Z" fill="none" stroke="#FFFFFF" stroke-width="0.4"/><path d="M37.2612 23.043L37.2612 17.7588L31.9731 22.7598L31.9731 28.6426L37.2612 23.043" fill="#026C9B"/><path d="M37.2612 23.043L37.2612 17.7588L31.9731 22.7598L31.9731 28.6426L37.2612 23.043Z" fill="none" stroke="#FFFFFF" stroke-width="0.4"/><path d="M26.3872 33.4551L26.3872 32.1465L29.2466 28.1738L29.2466 30.5957L26.3872 33.4551" fill="#026C9B"/><path d="M26.3872 33.4551L26.3872 32.1465L29.2466 28.1738L29.2466 30.5957L26.3872 33.4551Z" fill="none" stroke="#FFFFFF" stroke-width="0.4"/><path d="M26.3872 32.1465L26.3872 33.4551L1.2007 33.4551L1.2007 32.1465L26.3872 32.1465" fill="#026C9B"/><path d="M26.3872 32.1465L26.3872 33.4551L1.2007 33.4551L1.2007 32.1465L26.3872 32.1465Z" fill="none" stroke="#FFFFFF" stroke-width="0.4"/><path d="M26.3872 32.1465L1.2007 32.1465L4.1147 28.1738L29.2466 28.1738L26.3872 32.1465" fill="#026C9B"/><path d="M26.3872 32.1465L1.2007 32.1465L4.1147 28.1738L29.2466 28.1738L26.3872 32.1465Z" fill="none" stroke="#FFFFFF" stroke-width="0.4"/><path d="M37.2612 17.7588L5.7778 17.7588L0.5034 22.7363L31.9771 22.7363L37.2612 17.7588" fill="#026C9B"/><path d="M37.2612 17.7588L5.7778 17.7588L0.5034 22.7363L31.9771 22.7363L37.2612 17.7588Z" fill="none" stroke="#FFFFFF" stroke-width="0.4"/><path d="M27.8335 19.8184L27.8335 3.8984L6.1333 3.8984L6.1333 19.8184L27.8335 19.8184" fill="#026C9B"/><path d="M27.8335 19.8184L27.8335 3.8984L6.1333 3.8984L6.1333 19.8184L27.8335 19.8184Z" fill="none" stroke="#FFFFFF" stroke-width="0.4"/><path d="M7.9663 7.3926C7.9663 5.7959 9.6216 5.5596 9.6216 5.5596C9.6216 5.5596 22.394 5.5596 23.9312 5.5596C25.9419 5.5596 25.8823 7.4512 25.8823 7.4512C25.8823 7.4512 25.8823 15.2568 25.8823 16.3809C25.8823 17.5039 24.3452 17.9766 24.3452 17.9766C24.3452 17.9766 11.2778 17.9766 9.8579 17.9766C8.439 17.9766 7.9663 16.498 7.9663 16.498L7.9663 7.3926" fill="#026C9B"/><path d="M7.9663 7.3926C7.9663 5.7959 9.6216 5.5596 9.6216 5.5596C9.6216 5.5596 22.394 5.5596 23.9312 5.5596C25.9419 5.5596 25.8823 7.4512 25.8823 7.4512C25.8823 7.4512 25.8823 15.2568 25.8823 16.3809C25.8823 17.5039 24.3452 17.9766 24.3452 17.9766C24.3452 17.9766 11.2778 17.9766 9.8579 17.9766C8.439 17.9766 7.9663 16.498 7.9663 16.498L7.9663 7.3926Z" fill="none" stroke="#FFFFFF" stroke-width="0.4"/><path d="M31.4702 0.4746L9.769 0.4746L6.1333 3.8984L27.8335 3.8984L31.4702 0.4746" fill="#026C9B"/><path d="M31.4702 0.4746L9.769 0.4746L6.1333 3.8984L27.8335 3.8984L31.4702 0.4746Z" fill="none" stroke="#FFFFFF" stroke-width="0.4"/><path d="M31.4712 16.4297L31.4712 0.4668L27.8696 3.8984L27.8696 19.8184L31.4712 16.4297" fill="#026C9B"/><path d="M31.4712 16.4297L31.4712 0.4668L27.8696 3.8984L27.8696 19.8184L31.4712 16.4297Z" fill="none" stroke="#FFFFFF" stroke-width="0.4"/></g>
<text x="465" y="176" text-anchor="middle" font-family="Arial" font-size="14" font-weight="normal" fill="#333333">Lab PC2</text>
<path d="M150 194 L150 228 L410 228 L410 194" fill="none" stroke="#7a8794" stroke-width="1.8"/>
<line x1="280" y1="228" x2="280" y2="252" stroke="#7a8794" stroke-width="1.8"/>
<g transform="translate(228.00 252.00) scale(2.13058)"><path d="M36.3765 23.6852L36.3765 12.0895L0.6582 12.0895L0.6582 23.6852L36.3765 23.6852" fill="#026C9B"/><path d="M36.3765 23.6852L36.3765 12.0895L0.6582 12.0895L0.6582 23.6852L36.3765 23.6852Z" fill="none" stroke="#FFFFFF" stroke-width="0.4"/><path d="M0.5645 12.148L14.9922 0.4547L48.3218 0.4547L36.3433 12.148L0.5645 12.148" fill="#026C9B"/><path d="M0.5645 12.148L14.9922 0.4547L48.3218 0.4547L36.3433 12.148L0.5645 12.148Z" fill="none" stroke="#FFFFFF" stroke-width="0.4"/><path d="M36.3569 24.0504L48.2886 11.1588L48.2964 0.4752L36.3569 12.1314L36.3569 24.0504" fill="#026C9B"/><path d="M36.3569 24.0504L48.2886 11.1588L48.2964 0.4752L36.3569 12.1314L36.3569 24.0504Z" fill="none" stroke="#FFFFFF" stroke-width="0.4"/><path d="M21.5015 9.1061L20.8081 9.6744L11.9004 9.6744L11.0117 10.5621L8.5977 9.5103L13.4531 8.1217L12.5938 9.1061L21.5015 9.1061" fill="#FFFFFF"/><path d="M28.5015 4.7311L27.8081 5.2994L18.9004 5.2994L18.0117 6.1871L15.5977 5.1353L20.4531 3.7467L19.5938 4.7311L28.5015 4.7311" fill="#FFFFFF"/><path d="M23.0737 7.5602L23.7651 6.9918L32.6753 6.9918L33.564 6.1041L35.978 7.1559L31.1226 8.5445L31.9819 7.5602L23.0737 7.5602" fill="#FFFFFF"/><path d="M27.6987 3.1852L28.3901 2.6168L37.3003 2.6168L38.189 1.7291L40.603 2.7809L35.7476 4.1695L36.6069 3.1852L27.6987 3.1852" fill="#FFFFFF"/></g>
<text x="344" y="284" text-anchor="start" font-family="Arial" font-size="15" font-weight="bold" fill="#333333">S1</text>
<line x1="280" y1="304" x2="280" y2="390" stroke="#004a99" stroke-width="4"/>
<text x="298" y="334" text-anchor="start" font-family="Arial" font-size="14" font-weight="bold" fill="#004a99">802.1Q trunk</text>
<text x="298" y="354" text-anchor="start" font-family="Arial" font-size="13" font-weight="normal" fill="#6b6b6b">carries VLAN 10 and 20</text>
<text x="40" y="322" text-anchor="start" font-family="Arial" font-size="13.5" font-weight="normal" fill="#333333">G0/0/0.10  192.168.10.1</text>
<text x="40" y="342" text-anchor="start" font-family="Arial" font-size="13.5" font-weight="normal" fill="#333333">G0/0/0.20  192.168.20.1</text>
<text x="40" y="366" text-anchor="start" font-family="Courier New, monospace" font-size="13" font-weight="bold" fill="#cc0000">encapsulation dot1Q</text>
<g transform="translate(238.00 390.00) scale(2.26031)"><path d="M36.9854 7.3516C36.9854 11.3018 28.751 14.5039 18.5928 14.5039C8.4346 14.5039 0.2002 11.3018 0.2002 7.3516L0.2002 17.8281C0.2002 21.7783 8.4346 24.9805 18.5928 24.9805C28.751 24.9805 36.9854 21.7783 36.9854 17.8281L36.9854 7.3516" fill="#026C9B"/><path d="M36.9854 7.3516C36.9854 11.3018 28.751 14.5039 18.5928 14.5039C8.4346 14.5039 0.2002 11.3018 0.2002 7.3516L0.2002 17.8281C0.2002 21.7783 8.4346 24.9805 18.5928 24.9805C28.751 24.9805 36.9854 21.7783 36.9854 17.8281L36.9854 7.3516Z" fill="none" stroke="#FFFFFF" stroke-width="0.4"/><path d="M18.5928 14.5039C28.751 14.5039 36.9854 11.3018 36.9854 7.3516C36.9854 3.4004 28.751 0.1992 18.5928 0.1992C8.4346 0.1992 0.2002 3.4004 0.2002 7.3516C0.2002 11.3018 8.4346 14.5039 18.5928 14.5039" fill="#026C9B"/><path d="M18.5928 14.5039C28.751 14.5039 36.9854 11.3018 36.9854 7.3516C36.9854 3.4004 28.751 0.1992 18.5928 0.1992C8.4346 0.1992 0.2002 3.4004 0.2002 7.3516C0.2002 11.3018 8.4346 14.5039 18.5928 14.5039Z" fill="none" stroke="#FFFFFF" stroke-width="0.4"/><path d="M14.3926 4.5547L15.9111 6.833L10.1689 8.1602L11.4238 7.1152L2.5488 5.5986L4.7754 3.9297L13.3389 5.3799L14.3926 4.5547" fill="#FFFFFF"/><path d="M22.4727 10.0791L21.4365 7.7305L26.6162 6.6953L25.7178 7.5L34.3506 8.9746L32.2793 10.6318L23.6982 9.0205L22.4727 10.0791" fill="#FFFFFF"/><path d="M19.6406 3.3105L25.4424 1.7227L25.5107 4.209L24.0605 3.9326L21.2295 6.2812L18.5273 5.8867L21.4502 3.5898L19.6406 3.3105" fill="#FFFFFF"/><path d="M17.1543 12.2207L11.6299 13.2559L11.4229 10.7012L13.0107 11.0459L16.0518 8.4492L18.7432 8.9043L15.4971 11.7363L17.1543 12.2207" fill="#FFFFFF"/></g>
<text x="226" y="424" text-anchor="end" font-family="Arial" font-size="15" font-weight="bold" fill="#333333">R1</text>
<line x1="280" y1="447" x2="280" y2="540" stroke="#7a8794" stroke-width="1.8"/>
<text x="298" y="474" text-anchor="start" font-family="Arial" font-size="13.5" font-weight="normal" fill="#6b6b6b">G0/0/1</text>
<text x="298" y="498" text-anchor="start" font-family="Courier New, monospace" font-size="13" font-weight="bold" fill="#cc0000">ip route 0.0.0.0 0.0.0.0</text>
<text x="298" y="516" text-anchor="start" font-family="Courier New, monospace" font-size="13" font-weight="bold" fill="#cc0000">G0/0/1 10.10.10.2</text>
<g transform="translate(200.00 540.00) scale(1.94448)"><path d="M28.5762 5.6661C14.1758 2.7911 6.5762 10.1661 7.7764 16.5411L7.8731 16.8888C-3.3486 18.7984 -0.4072 32.0411 4.9756 32.0411L5.5059 32.0245C4.1504 38.2467 17.2637 44.5797 24.5762 41.4156L25.0459 40.901C27.6533 46.4977 36.916 47.4332 46.0762 47.6656C54.0146 47.8688 58.6475 47.2408 62.0518 43.7613L62.5762 43.9156C75.2832 44.9371 81.0703 36.1607 78.292 29.8585L78.9756 29.6661C83.3076 28.5206 83.8076 18.5206 76.376 17.0411L76.5186 16.6539C79.7451 10.1485 72.1357 4.0138 61.5762 5.1661L60.8447 4.7843C53.2861 -2.06 31.5303 -0.9442 29.0107 5.8248L28.5762 5.6661" fill="#FFFFFF"/><path d="M28.5762 5.6661C14.1758 2.7911 6.5762 10.1661 7.7764 16.5411L7.8731 16.8888C-3.3486 18.7984 -0.4072 32.0411 4.9756 32.0411L5.5059 32.0245C4.1504 38.2467 17.2637 44.5797 24.5762 41.4156L25.0459 40.901C27.6533 46.4977 36.916 47.4332 46.0762 47.6656C54.0146 47.8688 58.6475 47.2408 62.0518 43.7613L62.5762 43.9156C75.2832 44.9371 81.0703 36.1607 78.292 29.8585L78.9756 29.6661C83.3076 28.5206 83.8076 18.5206 76.376 17.0411L76.5186 16.6539C79.7451 10.1485 72.1357 4.0138 61.5762 5.1661L60.8447 4.7843C53.2861 -2.06 31.5303 -0.9442 29.0107 5.8248L28.5762 5.6661Z" fill="none" stroke="#026C9B" stroke-width="0.4"/></g>
<text x="280" y="658" text-anchor="middle" font-family="Arial" font-size="15" font-weight="bold" fill="#333333">Internet service provider</text>
<text x="280" y="678" text-anchor="middle" font-family="Arial" font-size="13.5" font-weight="normal" fill="#6b6b6b">next hop 10.10.10.2</text>
</svg>
