<svg xmlns="http://www.w3.org/2000/svg" viewBox="0 0 880 384" width="100%" style="max-width:880px;height:auto;display:block;margin:0 auto;" role="img" aria-labelledby="m6a-t m6a-d" xmlns:c2pa="http://c2pa.org/manifest"><metadata><c2pa:manifest>AAAWgmp1bWIAAAAeanVtZGMycGEAEQAQgAAAqgA4m3EDYzJwYQAAABZcanVtYgAAAEdqdW1kYzJtYQARABCAAACqADibcQN1cm46YzJwYTo5NjNmNjkxZi0yMmNjLTRkYzgtODMxOC0yN2Q5YjNjYWQ3NTUAAAADl2p1bWIAAAApanVtZGMyYXMAEQAQgAAAqgA4m3EDYzJwYS5hc3NlcnRpb25zAAAAALxqdW1iAAAARGp1bWRjYm9yABEAEIAAAKoAOJtxE2MycGEuaW5ncmVkaWVudC52MwAAAAAYYzJzaFXzEnwio1hBzixGHitgjoIAAABwY2JvcqNpZGM6Zm9ybWF0bWltYWdlL3N2Zyt4bWxqaW5zdGFuY2VJRHgseG1wOmlpZDo4YWY4YzI4NC1lOTMyLTQzMWItYWYzNy1jZGFmYTUyZmZjYTRscmVsYXRpb25zaGlwaHBhcmVudE9mAAAB4mp1bWIAAABBanVtZGNib3IAEQAQgAAAqgA4m3ETYzJwYS5hY3Rpb25zLnYyAAAAABhjMnNoB5XGB2bDYIwm135qXpwIPgAAAZljYm9yomdhY3Rpb25zgqJmYWN0aW9ua2MycGEub3BlbmVkanBhcmFtZXRlcnOha2luZ3JlZGllbnRzgaJjdXJseC1zZWxmI2p1bWJmPWMycGEuYXNzZXJ0aW9ucy9jMnBhLmluZ3JlZGllbnQudjNkaGFzaFgg58R/VARkar/iGj1FOn7ewBOvvy+r6xezToG3F2yt8OSkZmFjdGlvbngdY29tLmFudGhyb3BpYy5jbGF1ZGUucHJvdmlkZWRqcGFyYW1ldGVyc6F4H2NvbS5hbnRocm9waWMub3JpZ2luLWNvbmZpZGVuY2VndW5rbm93bmtkZXNjcmlwdGlvbnhmQ2xhdWRlIHByb3ZpZGVkIHRoaXMgZmlsZSBhdCB0aGUgcmVxdWVzdCBvZiBhIHVzZXIgYW5kIG1heSBoYXZlIGNyZWF0ZWQgb3IgbW9kaWZpZWQgdGhlIGZpbGUgY29udGVudHMubXNvZnR3YXJlQWdlbnShZG5hbWVmQ2xhdWRlcmFsbEFjdGlvbnNJbmNsdWRlZPUAAADIanVtYgAAAEBqdW1kY2JvcgARABCAAACqADibcRNjMnBhLmhhc2guZGF0YQAAAAAYYzJzaAtNEldRUk7/x5dqIaBIDkIAAACAY2JvcqVjYWxnZnNoYTI1NmNwYWRNAAAAAAAAAAAAAAAAAGRoYXNoWCDFebGIPwMp7SessUv/wqbKg/wdvIbh669uzBhwVSPURmRuYW1lbmp1bWJmIG1hbmlmZXN0amV4Y2x1c2lvbnOBomVzdGFydBj0Zmxlbmd0aBkeBAAAAj5qdW1iAAAAJ2p1bWRjMmNsABEAEIAAAKoAOJtxA2MycGEuY2xhaW0udjIAAAACD2Nib3KlY2FsZ2ZzaGEyNTZpc2lnbmF0dXJleE1zZWxmI2p1bWJmPS9jMnBhL3VybjpjMnBhOjk2M2Y2OTFmLTIyY2MtNGRjOC04MzE4LTI3ZDliM2NhZDc1NS9jMnBhLnNpZ25hdHVyZWppbnN0YW5jZUlEeCx4bXA6aWlkOjg1MzkwNjc3LTU0NDgtNDRjZi1iNjcwLWI5OTVlOWFmYmM5MHJjcmVhdGVkX2Fzc2VydGlvbnODomN1cmx4LXNlbGYjanVtYmY9YzJwYS5hc3NlcnRpb25zL2MycGEuaW5ncmVkaWVudC52M2RoYXNoWCDnxH9UBGRqv+IaPUU6ft7AE6+/L6vrF7NOgbcXbK3w5KJjdXJseCpzZWxmI2p1bWJmPWMycGEuYXNzZXJ0aW9ucy9jMnBhLmFjdGlvbnMudjJkaGFzaFggiFezeh7S5Ys27i3PsEYvDZADk43pD9Xk7WU/TjbrSrKiY3VybHgpc2VsZiNqdW1iZj1jMnBhLmFzc2VydGlvbnMvYzJwYS5oYXNoLmRhdGFkaGFzaFggRv7Ukm53+DsyfBGA99yUKpwxGMA8oDcYdlLLJN2annt0Y2xhaW1fZ2VuZXJhdG9yX2luZm+jZG5hbWVvQW50aHJvcGljIEZpbGVzZ3ZlcnNpb25lMS4wLjBrc3BlY1ZlcnNpb25lMi40LjAAABA4anVtYgAAAChqdW1kYzJjcwARABCAAACqADibcQNjMnBhLnNpZ25hdHVyZQAAABAIY2JvctKEWQISogEmGCFZAgowggIGMIIBjaADAgECAhRA5aAK7sI50L64g/oGQgU9Z1UTADAKBggqhkjOPQQDAzBJMRcwFQYDVQQKEw5BbnRocm9waWMsIFBCQzEuMCwGA1UEAxMlQW50aHJvcGljIENvbnRlbnQgQ3JlZGVudGlhbHMgUm9vdCBDQTAeFw0yNjA4MDcxODQzNTZaFw0yODA4MDYxOTQzNTZaMEQxFzAVBgNVBAoTDkFudGhyb3BpYywgUEJDMSkwJwYDVQQDEyBBbnRocm9waWMgQ2xhdWRlIENvbnRlbnQgU2lnbmluZzBZMBMGByqGSM49AgEGCCqGSM49AwEHA0IABJh6CmvLUBgFFNU0vUKlOVtE6djd17L5SuwX0LemFisBM3dkd/3cyjxFA3Qo5S46fX0/ihY0VZ7mfb9KF703t5OjWDBWMA4GA1UdDwEB/wQEAwIHgDAVBgNVHSUEDjAMBgorBgEEAYPoXgIBMAwGA1UdEwEB/wQCMAAwHwYDVR0jBBgwFoAUzlHiBIFOZFsj+OPEz5o+nMHXXMIwCgYIKoZIzj0EAwMDZwAwZAIwMXMdFJ4BetLLVY7ORuE9noqbbAZOZn/aArXyTwFAZfKrPzxF2vPoJNf1+UCdg1XGAjBwX1zd9WGqYkqmL5SFqw1QySjr1zJfpJM9+1rdDwSPLMOPOjKuiXjoU/pUUeG9RwmhY3BhZFkNngAAAAAAAAAAAAAAAAAAAAAAAAAAAAAAAAAAAAAAAAAAAAAAAAAAAAAAAAAAAAAAAAAAAAAAAAAAAAAAAAAAAAAAAAAAAAAAAAAAAAAAAAAAAAAAAAAAAAAAAAAAAAAAAAAAAAAAAAAAAAAAAAAAAAAAAAAAAAAAAAAAAAAAAAAAAAAAAAAAAAAAAAAAAAAAAAAAAAAAAAAAAAAAAAAAAAAAAAAAAAAAAAAAAAAAAAAAAAAAAAAAAAAAAAAAAAAAAAAAAAAAAAAAAAAAAAAAAAAAAAAAAAAAAAAAAAAAAAAAAAAAAAAAAAAAAAAAAAAAAAAAAAAAAAAAAAAAAAAAAAAAAAAAAAAAAAAAAAAAAAAAAAAAAAAAAAAAAAAAAAAAAAAAAAAAAAAAAAAAAAAAAAAAAAAAAAAAAAAAAAAAAAAAAAAAAAAAAAAAAAAAAAAAAAAAAAAAAAAAAAAAAAAAAAAAAAAAAAAAAAAAAAAAAAAAAAAAAAAAAAAAAAAAAAAAAAAAAAAAAAAAAAAAAAAAAAAAAAAAAAAAAAAAAAAAAAAAAAAAAAAAAAAAAAAAAAAAAAAAAAAAAAAAAAAAAAAAAAAAAAAAAAAAAAAAAAAAAAAAAAAAAAAAAAAAAAAAAAAAAAAAAAAAAAAAAAAAAAAAAAAAAAAAAAAAAAAAAAAAAAAAAAAAAAAAAAAAAAAAAAAAAAAAAAAAAAAAAAAAAAAAAAAAAAAAAAAAAAAAAAAAAAAAAAAAAAAAAAAAAAAAAAAAAAAAAAAAAAAAAAAAAAAAAAAAAAAAAAAAAAAAAAAAAAAAAAAAAAAAAAAAAAAAAAAAAAAAAAAAAAAAAAAAAAAAAAAAAAAAAAAAAAAAAAAAAAAAAAAAAAAAAAAAAAAAAAAAAAAAAAAAAAAAAAAAAAAAAAAAAAAAAAAAAAAAAAAAAAAAAAAAAAAAAAAAAAAAAAAAAAAAAAAAAAAAAAAAAAAAAAAAAAAAAAAAAAAAAAAAAAAAAAAAAAAAAAAAAAAAAAAAAAAAAAAAAAAAAAAAAAAAAAAAAAAAAAAAAAAAAAAAAAAAAAAAAAAAAAAAAAAAAAAAAAAAAAAAAAAAAAAAAAAAAAAAAAAAAAAAAAAAAAAAAAAAAAAAAAAAAAAAAAAAAAAAAAAAAAAAAAAAAAAAAAAAAAAAAAAAAAAAAAAAAAAAAAAAAAAAAAAAAAAAAAAAAAAAAAAAAAAAAAAAAAAAAAAAAAAAAAAAAAAAAAAAAAAAAAAAAAAAAAAAAAAAAAAAAAAAAAAAAAAAAAAAAAAAAAAAAAAAAAAAAAAAAAAAAAAAAAAAAAAAAAAAAAAAAAAAAAAAAAAAAAAAAAAAAAAAAAAAAAAAAAAAAAAAAAAAAAAAAAAAAAAAAAAAAAAAAAAAAAAAAAAAAAAAAAAAAAAAAAAAAAAAAAAAAAAAAAAAAAAAAAAAAAAAAAAAAAAAAAAAAAAAAAAAAAAAAAAAAAAAAAAAAAAAAAAAAAAAAAAAAAAAAAAAAAAAAAAAAAAAAAAAAAAAAAAAAAAAAAAAAAAAAAAAAAAAAAAAAAAAAAAAAAAAAAAAAAAAAAAAAAAAAAAAAAAAAAAAAAAAAAAAAAAAAAAAAAAAAAAAAAAAAAAAAAAAAAAAAAAAAAAAAAAAAAAAAAAAAAAAAAAAAAAAAAAAAAAAAAAAAAAAAAAAAAAAAAAAAAAAAAAAAAAAAAAAAAAAAAAAAAAAAAAAAAAAAAAAAAAAAAAAAAAAAAAAAAAAAAAAAAAAAAAAAAAAAAAAAAAAAAAAAAAAAAAAAAAAAAAAAAAAAAAAAAAAAAAAAAAAAAAAAAAAAAAAAAAAAAAAAAAAAAAAAAAAAAAAAAAAAAAAAAAAAAAAAAAAAAAAAAAAAAAAAAAAAAAAAAAAAAAAAAAAAAAAAAAAAAAAAAAAAAAAAAAAAAAAAAAAAAAAAAAAAAAAAAAAAAAAAAAAAAAAAAAAAAAAAAAAAAAAAAAAAAAAAAAAAAAAAAAAAAAAAAAAAAAAAAAAAAAAAAAAAAAAAAAAAAAAAAAAAAAAAAAAAAAAAAAAAAAAAAAAAAAAAAAAAAAAAAAAAAAAAAAAAAAAAAAAAAAAAAAAAAAAAAAAAAAAAAAAAAAAAAAAAAAAAAAAAAAAAAAAAAAAAAAAAAAAAAAAAAAAAAAAAAAAAAAAAAAAAAAAAAAAAAAAAAAAAAAAAAAAAAAAAAAAAAAAAAAAAAAAAAAAAAAAAAAAAAAAAAAAAAAAAAAAAAAAAAAAAAAAAAAAAAAAAAAAAAAAAAAAAAAAAAAAAAAAAAAAAAAAAAAAAAAAAAAAAAAAAAAAAAAAAAAAAAAAAAAAAAAAAAAAAAAAAAAAAAAAAAAAAAAAAAAAAAAAAAAAAAAAAAAAAAAAAAAAAAAAAAAAAAAAAAAAAAAAAAAAAAAAAAAAAAAAAAAAAAAAAAAAAAAAAAAAAAAAAAAAAAAAAAAAAAAAAAAAAAAAAAAAAAAAAAAAAAAAAAAAAAAAAAAAAAAAAAAAAAAAAAAAAAAAAAAAAAAAAAAAAAAAAAAAAAAAAAAAAAAAAAAAAAAAAAAAAAAAAAAAAAAAAAAAAAAAAAAAAAAAAAAAAAAAAAAAAAAAAAAAAAAAAAAAAAAAAAAAAAAAAAAAAAAAAAAAAAAAAAAAAAAAAAAAAAAAAAAAAAAAAAAAAAAAAAAAAAAAAAAAAAAAAAAAAAAAAAAAAAAAAAAAAAAAAAAAAAAAAAAAAAAAAAAAAAAAAAAAAAAAAAAAAAAAAAAAAAAAAAAAAAAAAAAAAAAAAAAAAAAAAAAAAAAAAAAAAAAAAAAAAAAAAAAAAAAAAAAAAAAAAAAAAAAAAAAAAAAAAAAAAAAAAAAAAAAAAAAAAAAAAAAAAAAAAAAAAAAAAAAAAAAAAAAAAAAAAAAAAAAAAAAAAAAAAAAAAAAAAAAAAAAAAAAAAAAAAAAAAAAAAAAAAAAAAAAAAAAAAAAAAAAAAAAAAAAAAAAAAAAAAAAAAAAAAAAAAAAAAAAAAAAAAAAAAAAAAAAAAAAAAAAAAAAAAAAAAAAAAAAAAAAAAAAAAAAAAAAAAAAAAAAAAAAAAAAAAAAAAAAAAAAAAAAAAAAAAAAAAAAAAAAAAAAAAAAAAAAAAAAAAAAAAAAAAAAAAAAAAAAAAAAAAAAAAAAAAAAAAAAAAAAAAAAAAAAAAAAAAAAAAAAAAAAAAAAAAAAAAAAAAAAAAAAAAAAAAAAAAAAAAAAAAAAAAAAAAAAAAAAAAAAAAAAAAAAAAAAAAAAAAAAAAAAAAAAAAAAAAAAAAAAAAAAAAAAAAAAAAAAAAAAAAAAAAAAAAAAAAAAAAAAAAAAAAAAAAAAAAAAAAAAAAAAAAAAAAAAAAAAAAAAAAAAAAAAAAAAAAAAAAAAAAAAAAAAAAAAAAAAAAAAAAAAAAAAAAAAAAAAAAAAAAAAAAAAAAAAAAAAAAAAAAAAAAAAAAAAAAAAAAAAAAAAAAAAAAAAAAAAAAAAAAAAAAAAAAAAAAAAAAAAAAAAAAAAAAAAAAAAAAAAAAAAAAAAAAAAAAAAAAAAAAAAAAAAAAAAAAAAAAAAAAAAAAAAAAAAAAAAAAAAAAAAAAAAAAAAAAAAAAAAAAAAAAAAAAAAAAAAAAAAAAAAAAAAAAAAAAAAAAAAAAAAAAAAAAAAAAAAAAAAAAAAAAAAAAAAAAAAAAAAAAAAAAAAAAAAAAAAAAAAAAAAAAAAAAAAAAAAAAAAAAAAAAAAAAAAAAAAAAAAAAAAAAAAAAAAAAAAAAAAAAAAAAAAAAAAAAAAAAAAAAAAAAAAAAAAAAAAAAAAAAAAAAAAAAAAAAAAAAAAAAAAAAAAAAAAAAAAAAAAAAAAAAAAAAAAAAAAAAAAAAAAAAAAAAAAAAAAAAAAAAAAAAAAAAAAAAAAAAAAAAAAAAAAAAAAAAAAAAAAAAAAAAAAAAAAAAAAAAAAAAAAAAAAAAAAAAAAAAAAAAAAAAAAAAAAAAAAAAAAAAAAAAAAAAAAAAAAAAAAAAAAAAAAAAAAAAAAAAAAAAAAAAAAAAAAAAAAAAAAAAAAAAAAAAAAAAAAAAAAAAAAAAAAAAAAAAAAAAAAAAAAAAAAAAAAAAAAAAAAAAAAAAAAAAAAAAAAAAAAAAAAAAAAAAAAAAAAAAAAAAAAAAAAAAAAAAAAAAAAAAAAAAAAAAAAAAAAAAAAAAAAAAAAAAAAAAAAAAAAAAAAAAAAAAAAAAAAAAAAAAAAAAAAAAAAAAAAAAAAAAAAAAAAAAAAAAAAAAAAAAAAAAAAAAAAAAAAAAAAAAAAAAAAAAAAAAAAAAAAAAAAAAAAAAAAAAAAAAAAAAAAAAAAAAAAAAAAAAAAAAAAAAAAAAAAAAAAAAAAAAAAAAAAAAAAAAAAAAAAAAAAAAAAAAAAAAAAAAAAAAAAAAAAAAAAAAAAAAAAAAAAAAAAAAAAAAAAAAAAAAAAAAAAAAAAAAAAAAAAAAAAAAAAAAAAAAAAAAAAAAAAAAAAAAAAAAAAAAAAAAAAAAAAAAAAAAAAAAAAAAAAAAAAAAAAAAAAAAAAAAAAAAAAAAAAAAAAAAAAAAAAAAAAAAAAAAAAAAAAAAAAAAAAAAAAAAAAAAAAAAAAAAAAAAAAAAPZYQHNSdpdD0Y3wz6AXo+xGPNWwokIIjl+yhbMI2PUagPpAqO+bdl/iAQivmpT1DRydaFAdA8SGEBNvKdYEZGkc+P4=</c2pa:manifest></metadata>
<title id="m6a-t">Campus to service provider topology</title>
<desc id="m6a-d">The student segment 192.168.10.0/24 and the faculty server segment 192.168.30.0/24 connect through switch S1 to border router R1, which connects to the service provider. The interface facing the campus is designated ip nat inside and the interface facing the provider is designated ip nat outside, forming the translation boundary between private and public addressing.</desc>
<rect x="40" y="46" width="232" height="150" rx="4" fill="#f4f7fb" stroke="#9db4d0" stroke-width="1.2" stroke-dasharray="6 4"/>
<text x="52" y="66" font-family="Arial" font-size="13" font-weight="bold" fill="#004a99">Student segment</text>
<text x="52" y="82" font-family="Arial" font-size="12.5" fill="#6b6b6b">192.168.10.0/24</text>
<g transform="translate(81.00 98.00) scale(1.64172)"><path d="M31.9771 28.6426L31.9771 22.7363L0.5034 22.7363L0.5034 28.6426L31.9771 28.6426" fill="#026C9B"/><path d="M31.9771 28.6426L31.9771 22.7363L0.5034 22.7363L0.5034 28.6426L31.9771 28.6426Z" fill="none" stroke="#FFFFFF" stroke-width="0.4"/><path d="M22.3374 26.0801L30.2759 26.0801" fill="#026C9B"/><path d="M22.3374 26.0801L30.2759 26.0801Z" fill="none" stroke="#FFFFFF" stroke-width="0.4"/><path d="M22.3374 25.7969L30.2759 25.7969" fill="#026C9B"/><path d="M22.3374 25.7969L30.2759 25.7969Z" fill="none" stroke="#FFFFFF" stroke-width="0.4"/><path d="M37.2612 23.043L37.2612 17.7588L31.9731 22.7598L31.9731 28.6426L37.2612 23.043" fill="#026C9B"/><path d="M37.2612 23.043L37.2612 17.7588L31.9731 22.7598L31.9731 28.6426L37.2612 23.043Z" fill="none" stroke="#FFFFFF" stroke-width="0.4"/><path d="M26.3872 33.4551L26.3872 32.1465L29.2466 28.1738L29.2466 30.5957L26.3872 33.4551" fill="#026C9B"/><path d="M26.3872 33.4551L26.3872 32.1465L29.2466 28.1738L29.2466 30.5957L26.3872 33.4551Z" fill="none" stroke="#FFFFFF" stroke-width="0.4"/><path d="M26.3872 32.1465L26.3872 33.4551L1.2007 33.4551L1.2007 32.1465L26.3872 32.1465" fill="#026C9B"/><path d="M26.3872 32.1465L26.3872 33.4551L1.2007 33.4551L1.2007 32.1465L26.3872 32.1465Z" fill="none" stroke="#FFFFFF" stroke-width="0.4"/><path d="M26.3872 32.1465L1.2007 32.1465L4.1147 28.1738L29.2466 28.1738L26.3872 32.1465" fill="#026C9B"/><path d="M26.3872 32.1465L1.2007 32.1465L4.1147 28.1738L29.2466 28.1738L26.3872 32.1465Z" fill="none" stroke="#FFFFFF" stroke-width="0.4"/><path d="M37.2612 17.7588L5.7778 17.7588L0.5034 22.7363L31.9771 22.7363L37.2612 17.7588" fill="#026C9B"/><path d="M37.2612 17.7588L5.7778 17.7588L0.5034 22.7363L31.9771 22.7363L37.2612 17.7588Z" fill="none" stroke="#FFFFFF" stroke-width="0.4"/><path d="M27.8335 19.8184L27.8335 3.8984L6.1333 3.8984L6.1333 19.8184L27.8335 19.8184" fill="#026C9B"/><path d="M27.8335 19.8184L27.8335 3.8984L6.1333 3.8984L6.1333 19.8184L27.8335 19.8184Z" fill="none" stroke="#FFFFFF" stroke-width="0.4"/><path d="M7.9663 7.3926C7.9663 5.7959 9.6216 5.5596 9.6216 5.5596C9.6216 5.5596 22.394 5.5596 23.9312 5.5596C25.9419 5.5596 25.8823 7.4512 25.8823 7.4512C25.8823 7.4512 25.8823 15.2568 25.8823 16.3809C25.8823 17.5039 24.3452 17.9766 24.3452 17.9766C24.3452 17.9766 11.2778 17.9766 9.8579 17.9766C8.439 17.9766 7.9663 16.498 7.9663 16.498L7.9663 7.3926" fill="#026C9B"/><path d="M7.9663 7.3926C7.9663 5.7959 9.6216 5.5596 9.6216 5.5596C9.6216 5.5596 22.394 5.5596 23.9312 5.5596C25.9419 5.5596 25.8823 7.4512 25.8823 7.4512C25.8823 7.4512 25.8823 15.2568 25.8823 16.3809C25.8823 17.5039 24.3452 17.9766 24.3452 17.9766C24.3452 17.9766 11.2778 17.9766 9.8579 17.9766C8.439 17.9766 7.9663 16.498 7.9663 16.498L7.9663 7.3926Z" fill="none" stroke="#FFFFFF" stroke-width="0.4"/><path d="M31.4702 0.4746L9.769 0.4746L6.1333 3.8984L27.8335 3.8984L31.4702 0.4746" fill="#026C9B"/><path d="M31.4702 0.4746L9.769 0.4746L6.1333 3.8984L27.8335 3.8984L31.4702 0.4746Z" fill="none" stroke="#FFFFFF" stroke-width="0.4"/><path d="M31.4712 16.4297L31.4712 0.4668L27.8696 3.8984L27.8696 19.8184L31.4712 16.4297" fill="#026C9B"/><path d="M31.4712 16.4297L31.4712 0.4668L27.8696 3.8984L27.8696 19.8184L31.4712 16.4297Z" fill="none" stroke="#FFFFFF" stroke-width="0.4"/></g>
<g transform="translate(179.00 98.00) scale(1.64172)"><path d="M31.9771 28.6426L31.9771 22.7363L0.5034 22.7363L0.5034 28.6426L31.9771 28.6426" fill="#026C9B"/><path d="M31.9771 28.6426L31.9771 22.7363L0.5034 22.7363L0.5034 28.6426L31.9771 28.6426Z" fill="none" stroke="#FFFFFF" stroke-width="0.4"/><path d="M22.3374 26.0801L30.2759 26.0801" fill="#026C9B"/><path d="M22.3374 26.0801L30.2759 26.0801Z" fill="none" stroke="#FFFFFF" stroke-width="0.4"/><path d="M22.3374 25.7969L30.2759 25.7969" fill="#026C9B"/><path d="M22.3374 25.7969L30.2759 25.7969Z" fill="none" stroke="#FFFFFF" stroke-width="0.4"/><path d="M37.2612 23.043L37.2612 17.7588L31.9731 22.7598L31.9731 28.6426L37.2612 23.043" fill="#026C9B"/><path d="M37.2612 23.043L37.2612 17.7588L31.9731 22.7598L31.9731 28.6426L37.2612 23.043Z" fill="none" stroke="#FFFFFF" stroke-width="0.4"/><path d="M26.3872 33.4551L26.3872 32.1465L29.2466 28.1738L29.2466 30.5957L26.3872 33.4551" fill="#026C9B"/><path d="M26.3872 33.4551L26.3872 32.1465L29.2466 28.1738L29.2466 30.5957L26.3872 33.4551Z" fill="none" stroke="#FFFFFF" stroke-width="0.4"/><path d="M26.3872 32.1465L26.3872 33.4551L1.2007 33.4551L1.2007 32.1465L26.3872 32.1465" fill="#026C9B"/><path d="M26.3872 32.1465L26.3872 33.4551L1.2007 33.4551L1.2007 32.1465L26.3872 32.1465Z" fill="none" stroke="#FFFFFF" stroke-width="0.4"/><path d="M26.3872 32.1465L1.2007 32.1465L4.1147 28.1738L29.2466 28.1738L26.3872 32.1465" fill="#026C9B"/><path d="M26.3872 32.1465L1.2007 32.1465L4.1147 28.1738L29.2466 28.1738L26.3872 32.1465Z" fill="none" stroke="#FFFFFF" stroke-width="0.4"/><path d="M37.2612 17.7588L5.7778 17.7588L0.5034 22.7363L31.9771 22.7363L37.2612 17.7588" fill="#026C9B"/><path d="M37.2612 17.7588L5.7778 17.7588L0.5034 22.7363L31.9771 22.7363L37.2612 17.7588Z" fill="none" stroke="#FFFFFF" stroke-width="0.4"/><path d="M27.8335 19.8184L27.8335 3.8984L6.1333 3.8984L6.1333 19.8184L27.8335 19.8184" fill="#026C9B"/><path d="M27.8335 19.8184L27.8335 3.8984L6.1333 3.8984L6.1333 19.8184L27.8335 19.8184Z" fill="none" stroke="#FFFFFF" stroke-width="0.4"/><path d="M7.9663 7.3926C7.9663 5.7959 9.6216 5.5596 9.6216 5.5596C9.6216 5.5596 22.394 5.5596 23.9312 5.5596C25.9419 5.5596 25.8823 7.4512 25.8823 7.4512C25.8823 7.4512 25.8823 15.2568 25.8823 16.3809C25.8823 17.5039 24.3452 17.9766 24.3452 17.9766C24.3452 17.9766 11.2778 17.9766 9.8579 17.9766C8.439 17.9766 7.9663 16.498 7.9663 16.498L7.9663 7.3926" fill="#026C9B"/><path d="M7.9663 7.3926C7.9663 5.7959 9.6216 5.5596 9.6216 5.5596C9.6216 5.5596 22.394 5.5596 23.9312 5.5596C25.9419 5.5596 25.8823 7.4512 25.8823 7.4512C25.8823 7.4512 25.8823 15.2568 25.8823 16.3809C25.8823 17.5039 24.3452 17.9766 24.3452 17.9766C24.3452 17.9766 11.2778 17.9766 9.8579 17.9766C8.439 17.9766 7.9663 16.498 7.9663 16.498L7.9663 7.3926Z" fill="none" stroke="#FFFFFF" stroke-width="0.4"/><path d="M31.4702 0.4746L9.769 0.4746L6.1333 3.8984L27.8335 3.8984L31.4702 0.4746" fill="#026C9B"/><path d="M31.4702 0.4746L9.769 0.4746L6.1333 3.8984L27.8335 3.8984L31.4702 0.4746Z" fill="none" stroke="#FFFFFF" stroke-width="0.4"/><path d="M31.4712 16.4297L31.4712 0.4668L27.8696 3.8984L27.8696 19.8184L31.4712 16.4297" fill="#026C9B"/><path d="M31.4712 16.4297L31.4712 0.4668L27.8696 3.8984L27.8696 19.8184L31.4712 16.4297Z" fill="none" stroke="#FFFFFF" stroke-width="0.4"/></g>
<text x="112" y="182" text-anchor="middle" font-family="Arial" font-size="12" fill="#333333">PC1</text>
<text x="210" y="182" text-anchor="middle" font-family="Arial" font-size="12" fill="#333333">PC2</text>
<rect x="40" y="228" width="232" height="140" rx="4" fill="#f4f7fb" stroke="#9db4d0" stroke-width="1.2" stroke-dasharray="6 4"/>
<text x="52" y="248" font-family="Arial" font-size="13" font-weight="bold" fill="#004a99">Faculty server segment</text>
<text x="52" y="264" font-family="Arial" font-size="12.5" fill="#6b6b6b">192.168.30.0/24</text>
<g transform="translate(129.00 278.00) scale(1.70725)"><path d="M31.2305 18.6549L28.3516 22.4947L4.4878 22.4947L8.396 18.5865L31.2305 18.6549" fill="#026C9B"/><path d="M31.2305 18.6549L28.3516 22.4947L4.4878 22.4947L8.396 18.5865L31.2305 18.6549Z" fill="none" stroke="#FFFFFF" stroke-width="0.4"/><path d="M4.4292 26.8141L4.4292 22.5436L27.3301 22.5436L27.3301 26.8141L4.4292 26.8141" fill="#026C9B"/><path d="M4.4292 26.8141L4.4292 22.5436L27.3301 22.5436L27.3301 26.8141L4.4292 26.8141Z" fill="none" stroke="#FFFFFF" stroke-width="0.4"/><path d="M4.355 4.3766L27.1758 4.3766L27.1758 21.5826L4.355 21.5826L4.355 4.3766" fill="#026C9B"/><path d="M4.355 4.3766L27.1758 4.3766L27.1758 21.5826L4.355 21.5826L4.355 4.3766Z" fill="none" stroke="#FFFFFF" stroke-width="0.4"/><path d="M27.1758 21.5826L31.0703 17.6881L31.0703 0.483L27.1758 4.3766L27.1758 21.5826" fill="#026C9B"/><path d="M27.1758 21.5826L31.0703 17.6881L31.0703 0.483L27.1758 4.3766L27.1758 21.5826Z" fill="none" stroke="#FFFFFF" stroke-width="0.4"/><path d="M27.3105 26.8248L27.3105 22.5504L31.1797 18.6822L31.1797 22.9557L27.3105 26.8248" fill="#026C9B"/><path d="M27.3105 26.8248L27.3105 22.5504L31.1797 18.6822L31.1797 22.9557L27.3105 26.8248Z" fill="none" stroke="#FFFFFF" stroke-width="0.4"/><path d="M8.1431 6.358L23.3926 6.358C24.3848 6.358 25.1895 7.1627 25.1895 8.1559L25.1895 17.7897C25.1895 18.7818 24.3848 19.5865 23.3926 19.5865L8.1431 19.5865C7.1509 19.5865 6.3462 18.7818 6.3462 17.7897L6.3462 8.1559C6.3462 7.1627 7.1509 6.358 8.1431 6.358" fill="#026C9B"/><path d="M8.1431 6.358L23.3926 6.358C24.3848 6.358 25.1895 7.1627 25.1895 8.1559L25.1895 17.7897C25.1895 18.7818 24.3848 19.5865 23.3926 19.5865L8.1431 19.5865C7.1509 19.5865 6.3462 18.7818 6.3462 17.7897L6.3462 8.1559C6.3462 7.1627 7.1509 6.358 8.1431 6.358Z" fill="none" stroke="#FFFFFF" stroke-width="0.4"/><path d="M31.0703 0.483L8.8735 0.483L4.355 4.3766L27.1758 4.3766L31.0703 0.483" fill="#026C9B"/><path d="M31.0703 0.483L8.8735 0.483L4.355 4.3766L27.1758 4.3766L31.0703 0.483Z" fill="none" stroke="#FFFFFF" stroke-width="0.4"/><path d="M26.6504 32.358L26.6504 30.9732L29.6387 26.8385L29.6387 29.3697L26.6504 32.358" fill="#026C9B"/><path d="M26.6504 32.358L26.6504 30.9732L29.6387 26.8385L29.6387 29.3697L26.6504 32.358Z" fill="none" stroke="#FFFFFF" stroke-width="0.4"/><path d="M26.6504 30.9938L0.3901 30.9938L3.3774 26.8385L29.6387 26.8385L26.6504 30.9938" fill="#026C9B"/><path d="M26.6504 30.9938L0.3901 30.9938L3.3774 26.8385L29.6387 26.8385L26.6504 30.9938Z" fill="none" stroke="#FFFFFF" stroke-width="0.4"/><path d="M26.6504 30.9938L26.6504 32.358L0.3745 32.358L0.3745 30.9938L26.6504 30.9938" fill="#026C9B"/><path d="M26.6504 30.9938L26.6504 32.358L0.3745 32.358L0.3745 30.9938L26.6504 30.9938Z" fill="none" stroke="#FFFFFF" stroke-width="0.4"/><path d="M13.4116 9.3268C10.7437 8.7936 9.3354 10.1598 9.5581 11.3404L9.5757 11.4049C7.4976 11.7594 8.0425 14.2135 9.0396 14.2135L9.1382 14.2096C8.9038 15.901 11.4038 16.901 12.6714 15.9498L12.7573 15.8541C13.1538 17.4635 18.5293 17.5885 19.6152 16.3844L19.7109 16.4127C22.0664 16.6022 23.1387 14.9762 22.623 13.8082L22.75 13.7721C23.5527 13.5611 23.6465 11.7076 22.2695 11.4342L22.2949 11.3619C22.8926 10.1568 21.4824 9.0201 19.5273 9.233L19.3906 9.1627C17.9902 7.8951 13.9595 8.1012 13.4927 9.3561L13.4116 9.3268" fill="#026C9B"/><path d="M13.4116 9.3268C10.7437 8.7936 9.3354 10.1598 9.5581 11.3404L9.5757 11.4049C7.4976 11.7594 8.0425 14.2135 9.0396 14.2135L9.1382 14.2096C8.9038 15.901 11.4038 16.901 12.6714 15.9498L12.7573 15.8541C13.1538 17.4635 18.5293 17.5885 19.6152 16.3844L19.7109 16.4127C22.0664 16.6022 23.1387 14.9762 22.623 13.8082L22.75 13.7721C23.5527 13.5611 23.6465 11.7076 22.2695 11.4342L22.2949 11.3619C22.8926 10.1568 21.4824 9.0201 19.5273 9.233L19.3906 9.1627C17.9902 7.8951 13.9595 8.1012 13.4927 9.3561L13.4116 9.3268Z" fill="none" stroke="#FFFFFF" stroke-width="0.4"/></g>
<text x="156" y="352" text-anchor="middle" font-family="Arial" font-size="12" fill="#333333">Web server  192.168.30.10</text>
<path d="M272 140 L360 140 L360 208" fill="none" stroke="#7a8794" stroke-width="1.6"/>
<path d="M272 300 L360 300 L360 250" fill="none" stroke="#7a8794" stroke-width="1.6"/>
<g transform="translate(314.00 208.00) scale(1.88474)"><path d="M36.3765 23.6852L36.3765 12.0895L0.6582 12.0895L0.6582 23.6852L36.3765 23.6852" fill="#026C9B"/><path d="M36.3765 23.6852L36.3765 12.0895L0.6582 12.0895L0.6582 23.6852L36.3765 23.6852Z" fill="none" stroke="#FFFFFF" stroke-width="0.4"/><path d="M0.5645 12.148L14.9922 0.4547L48.3218 0.4547L36.3433 12.148L0.5645 12.148" fill="#026C9B"/><path d="M0.5645 12.148L14.9922 0.4547L48.3218 0.4547L36.3433 12.148L0.5645 12.148Z" fill="none" stroke="#FFFFFF" stroke-width="0.4"/><path d="M36.3569 24.0504L48.2886 11.1588L48.2964 0.4752L36.3569 12.1314L36.3569 24.0504" fill="#026C9B"/><path d="M36.3569 24.0504L48.2886 11.1588L48.2964 0.4752L36.3569 12.1314L36.3569 24.0504Z" fill="none" stroke="#FFFFFF" stroke-width="0.4"/><path d="M21.5015 9.1061L20.8081 9.6744L11.9004 9.6744L11.0117 10.5621L8.5977 9.5103L13.4531 8.1217L12.5938 9.1061L21.5015 9.1061" fill="#FFFFFF"/><path d="M28.5015 4.7311L27.8081 5.2994L18.9004 5.2994L18.0117 6.1871L15.5977 5.1353L20.4531 3.7467L19.5938 4.7311L28.5015 4.7311" fill="#FFFFFF"/><path d="M23.0737 7.5602L23.7651 6.9918L32.6753 6.9918L33.564 6.1041L35.978 7.1559L31.1226 8.5445L31.9819 7.5602L23.0737 7.5602" fill="#FFFFFF"/><path d="M27.6987 3.1852L28.3901 2.6168L37.3003 2.6168L38.189 1.7291L40.603 2.7809L35.7476 4.1695L36.6069 3.1852L27.6987 3.1852" fill="#FFFFFF"/></g>
<text x="360" y="272" text-anchor="middle" font-family="Arial" font-size="12.5" font-weight="bold" fill="#333333">S1</text>
<path d="M406 224 L520 224" fill="none" stroke="#7a8794" stroke-width="1.6"/>
<g transform="translate(522.00 208.00) scale(2.04504)"><path d="M36.9854 7.3516C36.9854 11.3018 28.751 14.5039 18.5928 14.5039C8.4346 14.5039 0.2002 11.3018 0.2002 7.3516L0.2002 17.8281C0.2002 21.7783 8.4346 24.9805 18.5928 24.9805C28.751 24.9805 36.9854 21.7783 36.9854 17.8281L36.9854 7.3516" fill="#026C9B"/><path d="M36.9854 7.3516C36.9854 11.3018 28.751 14.5039 18.5928 14.5039C8.4346 14.5039 0.2002 11.3018 0.2002 7.3516L0.2002 17.8281C0.2002 21.7783 8.4346 24.9805 18.5928 24.9805C28.751 24.9805 36.9854 21.7783 36.9854 17.8281L36.9854 7.3516Z" fill="none" stroke="#FFFFFF" stroke-width="0.4"/><path d="M18.5928 14.5039C28.751 14.5039 36.9854 11.3018 36.9854 7.3516C36.9854 3.4004 28.751 0.1992 18.5928 0.1992C8.4346 0.1992 0.2002 3.4004 0.2002 7.3516C0.2002 11.3018 8.4346 14.5039 18.5928 14.5039" fill="#026C9B"/><path d="M18.5928 14.5039C28.751 14.5039 36.9854 11.3018 36.9854 7.3516C36.9854 3.4004 28.751 0.1992 18.5928 0.1992C8.4346 0.1992 0.2002 3.4004 0.2002 7.3516C0.2002 11.3018 8.4346 14.5039 18.5928 14.5039Z" fill="none" stroke="#FFFFFF" stroke-width="0.4"/><path d="M14.3926 4.5547L15.9111 6.833L10.1689 8.1602L11.4238 7.1152L2.5488 5.5986L4.7754 3.9297L13.3389 5.3799L14.3926 4.5547" fill="#FFFFFF"/><path d="M22.4727 10.0791L21.4365 7.7305L26.6162 6.6953L25.7178 7.5L34.3506 8.9746L32.2793 10.6318L23.6982 9.0205L22.4727 10.0791" fill="#FFFFFF"/><path d="M19.6406 3.3105L25.4424 1.7227L25.5107 4.209L24.0605 3.9326L21.2295 6.2812L18.5273 5.8867L21.4502 3.5898L19.6406 3.3105" fill="#FFFFFF"/><path d="M17.1543 12.2207L11.6299 13.2559L11.4229 10.7012L13.0107 11.0459L16.0518 8.4492L18.7432 8.9043L15.4971 11.7363L17.1543 12.2207" fill="#FFFFFF"/></g>
<text x="560" y="272" text-anchor="middle" font-family="Arial" font-size="12.5" font-weight="bold" fill="#333333">R1  border router</text>
<text x="462" y="216" text-anchor="middle" font-family="Arial" font-size="11.5" fill="#6b6b6b">G0/0/1  192.168.10.1</text>
<text x="462" y="245" text-anchor="middle" font-family="Arial" font-size="11.5" font-weight="bold" fill="#cc0000">ip nat inside</text>
<path d="M600 222 L690 222" fill="none" stroke="#7a8794" stroke-width="1.6"/>
<text x="648" y="214" text-anchor="middle" font-family="Arial" font-size="11.5" fill="#6b6b6b">G0/0/0</text>
<text x="648" y="245" text-anchor="middle" font-family="Arial" font-size="11.5" font-weight="bold" fill="#cc0000">ip nat outside</text>
<g transform="translate(698.00 186.00) scale(1.55558)"><path d="M28.5762 5.6661C14.1758 2.7911 6.5762 10.1661 7.7764 16.5411L7.8731 16.8888C-3.3486 18.7984 -0.4072 32.0411 4.9756 32.0411L5.5059 32.0245C4.1504 38.2467 17.2637 44.5797 24.5762 41.4156L25.0459 40.901C27.6533 46.4977 36.916 47.4332 46.0762 47.6656C54.0146 47.8688 58.6475 47.2408 62.0518 43.7613L62.5762 43.9156C75.2832 44.9371 81.0703 36.1607 78.292 29.8585L78.9756 29.6661C83.3076 28.5206 83.8076 18.5206 76.376 17.0411L76.5186 16.6539C79.7451 10.1485 72.1357 4.0138 61.5762 5.1661L60.8447 4.7843C53.2861 -2.06 31.5303 -0.9442 29.0107 5.8248L28.5762 5.6661" fill="#FFFFFF"/><path d="M28.5762 5.6661C14.1758 2.7911 6.5762 10.1661 7.7764 16.5411L7.8731 16.8888C-3.3486 18.7984 -0.4072 32.0411 4.9756 32.0411L5.5059 32.0245C4.1504 38.2467 17.2637 44.5797 24.5762 41.4156L25.0459 40.901C27.6533 46.4977 36.916 47.4332 46.0762 47.6656C54.0146 47.8688 58.6475 47.2408 62.0518 43.7613L62.5762 43.9156C75.2832 44.9371 81.0703 36.1607 78.292 29.8585L78.9756 29.6661C83.3076 28.5206 83.8076 18.5206 76.376 17.0411L76.5186 16.6539C79.7451 10.1485 72.1357 4.0138 61.5762 5.1661L60.8447 4.7843C53.2861 -2.06 31.5303 -0.9442 29.0107 5.8248L28.5762 5.6661Z" fill="none" stroke="#026C9B" stroke-width="0.4"/></g>
<text x="762" y="278" text-anchor="middle" font-family="Arial" font-size="12.5" font-weight="bold" fill="#333333">Service provider</text>
<text x="762" y="296" text-anchor="middle" font-family="Arial" font-size="11.5" fill="#6b6b6b">209.165.200.225/27 assigned</text>
<line x1="646" y1="60" x2="646" y2="330" stroke="#cc0000" stroke-width="1.3" stroke-dasharray="7 5" opacity="0.65"/>
<text x="646" y="50" text-anchor="middle" font-family="Arial" font-size="12" font-weight="bold" fill="#cc0000">translation boundary</text>
<text x="560" y="96" text-anchor="middle" font-family="Arial" font-size="12" fill="#6b6b6b">private addressing</text>
<text x="762" y="96" text-anchor="middle" font-family="Arial" font-size="12" fill="#6b6b6b">public addressing</text>
</svg>
