<svg xmlns="http://www.w3.org/2000/svg" viewBox="0 0 560 712" width="100%" style="max-width:560px;height:auto;display:block;margin:0 auto;" xmlns:c2pa="http://c2pa.org/manifest"><metadata><c2pa:manifest>AAAWgmp1bWIAAAAeanVtZGMycGEAEQAQgAAAqgA4m3EDYzJwYQAAABZcanVtYgAAAEdqdW1kYzJtYQARABCAAACqADibcQN1cm46YzJwYTo2NGIyOTU0Yy0yNmU2LTRlYmItOThhNS1jMGI5OTZmZGUzNjYAAAADl2p1bWIAAAApanVtZGMyYXMAEQAQgAAAqgA4m3EDYzJwYS5hc3NlcnRpb25zAAAAALxqdW1iAAAARGp1bWRjYm9yABEAEIAAAKoAOJtxE2MycGEuaW5ncmVkaWVudC52MwAAAAAYYzJzaG2JGuLwLRdoUi1V/sls/NwAAABwY2JvcqNpZGM6Zm9ybWF0bWltYWdlL3N2Zyt4bWxqaW5zdGFuY2VJRHgseG1wOmlpZDpjYmE0ZTEwMi0zMzFlLTQzZmQtOGEzNy04YjlkOGU1MDU5YjNscmVsYXRpb25zaGlwaHBhcmVudE9mAAAB4mp1bWIAAABBanVtZGNib3IAEQAQgAAAqgA4m3ETYzJwYS5hY3Rpb25zLnYyAAAAABhjMnNoMLR0aq7VlBF8pQMhIGIzbAAAAZljYm9yomdhY3Rpb25zgqJmYWN0aW9ua2MycGEub3BlbmVkanBhcmFtZXRlcnOha2luZ3JlZGllbnRzgaJjdXJseC1zZWxmI2p1bWJmPWMycGEuYXNzZXJ0aW9ucy9jMnBhLmluZ3JlZGllbnQudjNkaGFzaFggIXiEqCKhysE+7cs/GQnDzjpOBG3T0FDwtYMImMSSgiukZmFjdGlvbngdY29tLmFudGhyb3BpYy5jbGF1ZGUucHJvdmlkZWRqcGFyYW1ldGVyc6F4H2NvbS5hbnRocm9waWMub3JpZ2luLWNvbmZpZGVuY2VndW5rbm93bmtkZXNjcmlwdGlvbnhmQ2xhdWRlIHByb3ZpZGVkIHRoaXMgZmlsZSBhdCB0aGUgcmVxdWVzdCBvZiBhIHVzZXIgYW5kIG1heSBoYXZlIGNyZWF0ZWQgb3IgbW9kaWZpZWQgdGhlIGZpbGUgY29udGVudHMubXNvZnR3YXJlQWdlbnShZG5hbWVmQ2xhdWRlcmFsbEFjdGlvbnNJbmNsdWRlZPUAAADIanVtYgAAAEBqdW1kY2JvcgARABCAAACqADibcRNjMnBhLmhhc2guZGF0YQAAAAAYYzJzaO+EUjFsXSDo2BEcvt02bq8AAACAY2JvcqVjYWxnZnNoYTI1NmNwYWRNAAAAAAAAAAAAAAAAAGRoYXNoWCDhtrCU22OL9bbMis1m5ODjc5XKf9x4uJSUKD3Lc+Hjs2RuYW1lbmp1bWJmIG1hbmlmZXN0amV4Y2x1c2lvbnOBomVzdGFydBjLZmxlbmd0aBkeBAAAAj5qdW1iAAAAJ2p1bWRjMmNsABEAEIAAAKoAOJtxA2MycGEuY2xhaW0udjIAAAACD2Nib3KlY2FsZ2ZzaGEyNTZpc2lnbmF0dXJleE1zZWxmI2p1bWJmPS9jMnBhL3VybjpjMnBhOjY0YjI5NTRjLTI2ZTYtNGViYi05OGE1LWMwYjk5NmZkZTM2Ni9jMnBhLnNpZ25hdHVyZWppbnN0YW5jZUlEeCx4bXA6aWlkOjM2NmJjMjY5LTk5NjYtNDMzMi05ZjdhLTEwYmE1MjNiMjA5MHJjcmVhdGVkX2Fzc2VydGlvbnODomN1cmx4LXNlbGYjanVtYmY9YzJwYS5hc3NlcnRpb25zL2MycGEuaW5ncmVkaWVudC52M2RoYXNoWCAheISoIqHKwT7tyz8ZCcPOOk4EbdPQUPC1gwiYxJKCK6JjdXJseCpzZWxmI2p1bWJmPWMycGEuYXNzZXJ0aW9ucy9jMnBhLmFjdGlvbnMudjJkaGFzaFggLc8KY/JBiZ8qBV607F9KWQczy91hbBZXhXz0TZFw2FWiY3VybHgpc2VsZiNqdW1iZj1jMnBhLmFzc2VydGlvbnMvYzJwYS5oYXNoLmRhdGFkaGFzaFgg9KGFULbr1PmIEoJ+g1IiCaun4kRLDxImQ4ikusgreeR0Y2xhaW1fZ2VuZXJhdG9yX2luZm+jZG5hbWVvQW50aHJvcGljIEZpbGVzZ3ZlcnNpb25lMS4wLjBrc3BlY1ZlcnNpb25lMi40LjAAABA4anVtYgAAAChqdW1kYzJjcwARABCAAACqADibcQNjMnBhLnNpZ25hdHVyZQAAABAIY2JvctKEWQISogEmGCFZAgowggIGMIIBjaADAgECAhRA5aAK7sI50L64g/oGQgU9Z1UTADAKBggqhkjOPQQDAzBJMRcwFQYDVQQKEw5BbnRocm9waWMsIFBCQzEuMCwGA1UEAxMlQW50aHJvcGljIENvbnRlbnQgQ3JlZGVudGlhbHMgUm9vdCBDQTAeFw0yNjA4MDcxODQzNTZaFw0yODA4MDYxOTQzNTZaMEQxFzAVBgNVBAoTDkFudGhyb3BpYywgUEJDMSkwJwYDVQQDEyBBbnRocm9waWMgQ2xhdWRlIENvbnRlbnQgU2lnbmluZzBZMBMGByqGSM49AgEGCCqGSM49AwEHA0IABJh6CmvLUBgFFNU0vUKlOVtE6djd17L5SuwX0LemFisBM3dkd/3cyjxFA3Qo5S46fX0/ihY0VZ7mfb9KF703t5OjWDBWMA4GA1UdDwEB/wQEAwIHgDAVBgNVHSUEDjAMBgorBgEEAYPoXgIBMAwGA1UdEwEB/wQCMAAwHwYDVR0jBBgwFoAUzlHiBIFOZFsj+OPEz5o+nMHXXMIwCgYIKoZIzj0EAwMDZwAwZAIwMXMdFJ4BetLLVY7ORuE9noqbbAZOZn/aArXyTwFAZfKrPzxF2vPoJNf1+UCdg1XGAjBwX1zd9WGqYkqmL5SFqw1QySjr1zJfpJM9+1rdDwSPLMOPOjKuiXjoU/pUUeG9RwmhY3BhZFkNngAAAAAAAAAAAAAAAAAAAAAAAAAAAAAAAAAAAAAAAAAAAAAAAAAAAAAAAAAAAAAAAAAAAAAAAAAAAAAAAAAAAAAAAAAAAAAAAAAAAAAAAAAAAAAAAAAAAAAAAAAAAAAAAAAAAAAAAAAAAAAAAAAAAAAAAAAAAAAAAAAAAAAAAAAAAAAAAAAAAAAAAAAAAAAAAAAAAAAAAAAAAAAAAAAAAAAAAAAAAAAAAAAAAAAAAAAAAAAAAAAAAAAAAAAAAAAAAAAAAAAAAAAAAAAAAAAAAAAAAAAAAAAAAAAAAAAAAAAAAAAAAAAAAAAAAAAAAAAAAAAAAAAAAAAAAAAAAAAAAAAAAAAAAAAAAAAAAAAAAAAAAAAAAAAAAAAAAAAAAAAAAAAAAAAAAAAAAAAAAAAAAAAAAAAAAAAAAAAAAAAAAAAAAAAAAAAAAAAAAAAAAAAAAAAAAAAAAAAAAAAAAAAAAAAAAAAAAAAAAAAAAAAAAAAAAAAAAAAAAAAAAAAAAAAAAAAAAAAAAAAAAAAAAAAAAAAAAAAAAAAAAAAAAAAAAAAAAAAAAAAAAAAAAAAAAAAAAAAAAAAAAAAAAAAAAAAAAAAAAAAAAAAAAAAAAAAAAAAAAAAAAAAAAAAAAAAAAAAAAAAAAAAAAAAAAAAAAAAAAAAAAAAAAAAAAAAAAAAAAAAAAAAAAAAAAAAAAAAAAAAAAAAAAAAAAAAAAAAAAAAAAAAAAAAAAAAAAAAAAAAAAAAAAAAAAAAAAAAAAAAAAAAAAAAAAAAAAAAAAAAAAAAAAAAAAAAAAAAAAAAAAAAAAAAAAAAAAAAAAAAAAAAAAAAAAAAAAAAAAAAAAAAAAAAAAAAAAAAAAAAAAAAAAAAAAAAAAAAAAAAAAAAAAAAAAAAAAAAAAAAAAAAAAAAAAAAAAAAAAAAAAAAAAAAAAAAAAAAAAAAAAAAAAAAAAAAAAAAAAAAAAAAAAAAAAAAAAAAAAAAAAAAAAAAAAAAAAAAAAAAAAAAAAAAAAAAAAAAAAAAAAAAAAAAAAAAAAAAAAAAAAAAAAAAAAAAAAAAAAAAAAAAAAAAAAAAAAAAAAAAAAAAAAAAAAAAAAAAAAAAAAAAAAAAAAAAAAAAAAAAAAAAAAAAAAAAAAAAAAAAAAAAAAAAAAAAAAAAAAAAAAAAAAAAAAAAAAAAAAAAAAAAAAAAAAAAAAAAAAAAAAAAAAAAAAAAAAAAAAAAAAAAAAAAAAAAAAAAAAAAAAAAAAAAAAAAAAAAAAAAAAAAAAAAAAAAAAAAAAAAAAAAAAAAAAAAAAAAAAAAAAAAAAAAAAAAAAAAAAAAAAAAAAAAAAAAAAAAAAAAAAAAAAAAAAAAAAAAAAAAAAAAAAAAAAAAAAAAAAAAAAAAAAAAAAAAAAAAAAAAAAAAAAAAAAAAAAAAAAAAAAAAAAAAAAAAAAAAAAAAAAAAAAAAAAAAAAAAAAAAAAAAAAAAAAAAAAAAAAAAAAAAAAAAAAAAAAAAAAAAAAAAAAAAAAAAAAAAAAAAAAAAAAAAAAAAAAAAAAAAAAAAAAAAAAAAAAAAAAAAAAAAAAAAAAAAAAAAAAAAAAAAAAAAAAAAAAAAAAAAAAAAAAAAAAAAAAAAAAAAAAAAAAAAAAAAAAAAAAAAAAAAAAAAAAAAAAAAAAAAAAAAAAAAAAAAAAAAAAAAAAAAAAAAAAAAAAAAAAAAAAAAAAAAAAAAAAAAAAAAAAAAAAAAAAAAAAAAAAAAAAAAAAAAAAAAAAAAAAAAAAAAAAAAAAAAAAAAAAAAAAAAAAAAAAAAAAAAAAAAAAAAAAAAAAAAAAAAAAAAAAAAAAAAAAAAAAAAAAAAAAAAAAAAAAAAAAAAAAAAAAAAAAAAAAAAAAAAAAAAAAAAAAAAAAAAAAAAAAAAAAAAAAAAAAAAAAAAAAAAAAAAAAAAAAAAAAAAAAAAAAAAAAAAAAAAAAAAAAAAAAAAAAAAAAAAAAAAAAAAAAAAAAAAAAAAAAAAAAAAAAAAAAAAAAAAAAAAAAAAAAAAAAAAAAAAAAAAAAAAAAAAAAAAAAAAAAAAAAAAAAAAAAAAAAAAAAAAAAAAAAAAAAAAAAAAAAAAAAAAAAAAAAAAAAAAAAAAAAAAAAAAAAAAAAAAAAAAAAAAAAAAAAAAAAAAAAAAAAAAAAAAAAAAAAAAAAAAAAAAAAAAAAAAAAAAAAAAAAAAAAAAAAAAAAAAAAAAAAAAAAAAAAAAAAAAAAAAAAAAAAAAAAAAAAAAAAAAAAAAAAAAAAAAAAAAAAAAAAAAAAAAAAAAAAAAAAAAAAAAAAAAAAAAAAAAAAAAAAAAAAAAAAAAAAAAAAAAAAAAAAAAAAAAAAAAAAAAAAAAAAAAAAAAAAAAAAAAAAAAAAAAAAAAAAAAAAAAAAAAAAAAAAAAAAAAAAAAAAAAAAAAAAAAAAAAAAAAAAAAAAAAAAAAAAAAAAAAAAAAAAAAAAAAAAAAAAAAAAAAAAAAAAAAAAAAAAAAAAAAAAAAAAAAAAAAAAAAAAAAAAAAAAAAAAAAAAAAAAAAAAAAAAAAAAAAAAAAAAAAAAAAAAAAAAAAAAAAAAAAAAAAAAAAAAAAAAAAAAAAAAAAAAAAAAAAAAAAAAAAAAAAAAAAAAAAAAAAAAAAAAAAAAAAAAAAAAAAAAAAAAAAAAAAAAAAAAAAAAAAAAAAAAAAAAAAAAAAAAAAAAAAAAAAAAAAAAAAAAAAAAAAAAAAAAAAAAAAAAAAAAAAAAAAAAAAAAAAAAAAAAAAAAAAAAAAAAAAAAAAAAAAAAAAAAAAAAAAAAAAAAAAAAAAAAAAAAAAAAAAAAAAAAAAAAAAAAAAAAAAAAAAAAAAAAAAAAAAAAAAAAAAAAAAAAAAAAAAAAAAAAAAAAAAAAAAAAAAAAAAAAAAAAAAAAAAAAAAAAAAAAAAAAAAAAAAAAAAAAAAAAAAAAAAAAAAAAAAAAAAAAAAAAAAAAAAAAAAAAAAAAAAAAAAAAAAAAAAAAAAAAAAAAAAAAAAAAAAAAAAAAAAAAAAAAAAAAAAAAAAAAAAAAAAAAAAAAAAAAAAAAAAAAAAAAAAAAAAAAAAAAAAAAAAAAAAAAAAAAAAAAAAAAAAAAAAAAAAAAAAAAAAAAAAAAAAAAAAAAAAAAAAAAAAAAAAAAAAAAAAAAAAAAAAAAAAAAAAAAAAAAAAAAAAAAAAAAAAAAAAAAAAAAAAAAAAAAAAAAAAAAAAAAAAAAAAAAAAAAAAAAAAAAAAAAAAAAAAAAAAAAAAAAAAAAAAAAAAAAAAAAAAAAAAAAAAAAAAAAAAAAAAAAAAAAAAAAAAAAAAAAAAAAAAAAAAAAAAAAAAAAAAAAAAAAAAAAAAAAAAAAAAAAAAAAAAAAAAAAAAAAAAAAAAAAAAAAAAAAAAAAAAAAAAAAAAAAAAAAAAAAAAAAAAAAAAAAAAAAAAAAAAAAAAAAAAAAAAAAAAAAAAAAAAAAAAAAAAAAAAAAAAAAAAAAAAAAAAAAAAAAAAAAAAAAAAAAAAAAAAAAAAAAAAAAAAAAAAAAAAAAAAAAAAAAAAAAAAAAAAAAAAAAAAAAAAAAAAAAAAAAAAAAAAAAAAAAAAAAAAAAAAAAAAAAAAAAAAAAAAAAAAAAAAAAAAAAAAAAAAAAAAAAAAAAAAAAAAAAAAAAAAAAAAAAAAAAAAAAAAAAAAAAAAAAAAAAAAAAAAAAAAAAAAAAAAAAAAAAAAAAAAAAAAAAAAAAAAAAAAAAAAAAAAAAAAAAAAAAAAAAAAAAAAAAAAAAAAAAAAAAAAAAAAAAAAAAAAAAAAAAAAAAAAAAAAAAAAAAAAAAAAAAAAAAAAAAAAAAAAAAAAAAAAAAAAAAAAAAAAAAAAAAAAAAAAAAAAAAAAAAAAAAAAAAAAAAAAAAAAAAAAAAAAAAAAAAAAAAAAAAAAAAAAAAAAAAAAAAAAAAAAAAAAAAAAAAAAAAAAAAAAAAAAAAAAAAAAAAAAAAAAAAAAAAAAAAAAAAAAAAAAAAAAAAAAAAAAAAAAAAAAAAAAAAAAAAAAAAAAAAAAAAAAAAAAAAAAAAAAAAAAAAAAAAAAAAAAAAAAAAAAAAAAAAAAAAAAAAAAAAAAAAAAAAAAAAAAAAAAAAAAAAAAAAAAAAAAAAAAAAAAAAAAAAAAAAAAAAAAAAAAAAAAAAAAAAAAAAAAAAAAAAAAAAAAAAAAAAAAAAAAAAAAAAAAAAAAAAAAAAAAAAAAAAAAAAAAAAAAAAAAAAAAAAAAAAAAAAAAAAAAAAAAAAAAAAAAAAAAAAAAAAAAAAAAAAAAAAAAAAAAAAAAAAAAAAAAAAAAAAAAAAAAAAAAAAAAAAAAAAAAAAAAAAAAAAAAAAAAAAAAAAAAAAAAAAAAAAAAAAAAAAAAAAAAAAAAAAAAAAAAAAAAAAAAAAAAAAAAAAAAAAAAAAAAAAAAAAAAAAAAAAAAAAAAAAAAAAAAAAAAAAAAAAAAAAAAAAAAAAAAAAAAAAAAAAAAAAAAAAAAAAAAAAAAAAAAAAAAAAAAAAAAAAAAAAAAAAAAAAAAAAAAAAAAAAAAAAAAAAAAAAAAAAAAAAAAAAAAAAAAAAAAAAAAAAAAAAAAAAAAAAAAAAAAAAAAAAAAAAAAAAAAAAAAAAAAAAAAAAAAAAPZYQL4R8zB80CiBEUdKIgFqopGHGiVMp/RA/9Rxlk0EY4g6FCYg0kr91OK4HvFx4v5bq9w1LkStlpmMNEE9lMpLyPw=</c2pa:manifest></metadata>
<g transform="translate(238.00 40.00) scale(2.26031)"><path d="M36.9854 7.3516C36.9854 11.3018 28.751 14.5039 18.5928 14.5039C8.4346 14.5039 0.2002 11.3018 0.2002 7.3516L0.2002 17.8281C0.2002 21.7783 8.4346 24.9805 18.5928 24.9805C28.751 24.9805 36.9854 21.7783 36.9854 17.8281L36.9854 7.3516" fill="#026C9B"/><path d="M36.9854 7.3516C36.9854 11.3018 28.751 14.5039 18.5928 14.5039C8.4346 14.5039 0.2002 11.3018 0.2002 7.3516L0.2002 17.8281C0.2002 21.7783 8.4346 24.9805 18.5928 24.9805C28.751 24.9805 36.9854 21.7783 36.9854 17.8281L36.9854 7.3516Z" fill="none" stroke="#FFFFFF" stroke-width="0.4"/><path d="M18.5928 14.5039C28.751 14.5039 36.9854 11.3018 36.9854 7.3516C36.9854 3.4004 28.751 0.1992 18.5928 0.1992C8.4346 0.1992 0.2002 3.4004 0.2002 7.3516C0.2002 11.3018 8.4346 14.5039 18.5928 14.5039" fill="#026C9B"/><path d="M18.5928 14.5039C28.751 14.5039 36.9854 11.3018 36.9854 7.3516C36.9854 3.4004 28.751 0.1992 18.5928 0.1992C8.4346 0.1992 0.2002 3.4004 0.2002 7.3516C0.2002 11.3018 8.4346 14.5039 18.5928 14.5039Z" fill="none" stroke="#FFFFFF" stroke-width="0.4"/><path d="M14.3926 4.5547L15.9111 6.833L10.1689 8.1602L11.4238 7.1152L2.5488 5.5986L4.7754 3.9297L13.3389 5.3799L14.3926 4.5547" fill="#FFFFFF"/><path d="M22.4727 10.0791L21.4365 7.7305L26.6162 6.6953L25.7178 7.5L34.3506 8.9746L32.2793 10.6318L23.6982 9.0205L22.4727 10.0791" fill="#FFFFFF"/><path d="M19.6406 3.3105L25.4424 1.7227L25.5107 4.209L24.0605 3.9326L21.2295 6.2812L18.5273 5.8867L21.4502 3.5898L19.6406 3.3105" fill="#FFFFFF"/><path d="M17.1543 12.2207L11.6299 13.2559L11.4229 10.7012L13.0107 11.0459L16.0518 8.4492L18.7432 8.9043L15.4971 11.7363L17.1543 12.2207" fill="#FFFFFF"/></g>
<text x="334" y="76" text-anchor="start" font-family="Arial" font-size="15" font-weight="bold" fill="#333333">R1</text>
<line x1="280" y1="97" x2="280" y2="110" stroke="#7a8794" stroke-width="1.8"/>
<rect x="110" y="110" width="340" height="74" rx="6" fill="#f4f7fb" stroke="#9db4d0" stroke-width="1.3"/>
<rect x="126" y="126" width="140" height="44" rx="4" fill="#ffffff" stroke="#004a99" stroke-width="1.6"/>
<text x="196" y="145" text-anchor="middle" font-family="Arial" font-size="13.5" font-weight="bold" fill="#004a99">G0/0/0.10</text>
<text x="196" y="162" text-anchor="middle" font-family="Arial" font-size="12" font-weight="normal" fill="#6b6b6b">VLAN 10 gateway</text>
<rect x="294" y="126" width="140" height="44" rx="4" fill="#ffffff" stroke="#1a7a34" stroke-width="1.6"/>
<text x="364" y="145" text-anchor="middle" font-family="Arial" font-size="13.5" font-weight="bold" fill="#1a7a34">G0/0/0.20</text>
<text x="364" y="162" text-anchor="middle" font-family="Arial" font-size="12" font-weight="normal" fill="#6b6b6b">VLAN 20 gateway</text>
<line x1="266" y1="150" x2="285" y2="150" stroke="#cc0000" stroke-width="2.2"/>
<polygon points="285,144 285,156 294,150" fill="#cc0000"/>
<circle cx="280" cy="122" r="11" fill="#cc0000"/><text x="280" y="126.5" text-anchor="middle" font-family="Arial" font-size="13" font-weight="bold" fill="#ffffff">3</text>
<line x1="280" y1="184" x2="280" y2="330" stroke="#b8c4d0" stroke-width="10"/>
<text x="40" y="300" text-anchor="start" font-family="Arial" font-size="13.5" font-weight="bold" fill="#6b6b6b">802.1Q trunk</text>
<text x="40" y="318" text-anchor="start" font-family="Arial" font-size="12.5" font-weight="normal" fill="#6b6b6b">one physical link</text>
<line x1="254" y1="318" x2="254" y2="205" stroke="#004a99" stroke-width="2.2"/><polygon points="248,205 260,205 254,196" fill="#004a99"/>
<text x="244" y="246" text-anchor="end" font-family="Arial" font-size="13" font-weight="normal" fill="#6b6b6b">tagged</text>
<text x="244" y="266" text-anchor="end" font-family="Arial" font-size="14" font-weight="bold" fill="#004a99">VLAN 10</text>
<circle cx="228" cy="214" r="11" fill="#cc0000"/><text x="228" y="218.5" text-anchor="middle" font-family="Arial" font-size="13" font-weight="bold" fill="#ffffff">2</text>
<line x1="306" y1="196" x2="306" y2="309" stroke="#1a7a34" stroke-width="2.2"/><polygon points="300,309 312,309 306,318" fill="#1a7a34"/>
<text x="316" y="246" text-anchor="start" font-family="Arial" font-size="13" font-weight="normal" fill="#6b6b6b">tagged</text>
<text x="316" y="266" text-anchor="start" font-family="Arial" font-size="14" font-weight="bold" fill="#1a7a34">VLAN 20</text>
<circle cx="332" cy="214" r="11" fill="#cc0000"/><text x="332" y="218.5" text-anchor="middle" font-family="Arial" font-size="13" font-weight="bold" fill="#ffffff">4</text>
<g transform="translate(228.00 330.00) scale(2.13058)"><path d="M36.3765 23.6852L36.3765 12.0895L0.6582 12.0895L0.6582 23.6852L36.3765 23.6852" fill="#026C9B"/><path d="M36.3765 23.6852L36.3765 12.0895L0.6582 12.0895L0.6582 23.6852L36.3765 23.6852Z" fill="none" stroke="#FFFFFF" stroke-width="0.4"/><path d="M0.5645 12.148L14.9922 0.4547L48.3218 0.4547L36.3433 12.148L0.5645 12.148" fill="#026C9B"/><path d="M0.5645 12.148L14.9922 0.4547L48.3218 0.4547L36.3433 12.148L0.5645 12.148Z" fill="none" stroke="#FFFFFF" stroke-width="0.4"/><path d="M36.3569 24.0504L48.2886 11.1588L48.2964 0.4752L36.3569 12.1314L36.3569 24.0504" fill="#026C9B"/><path d="M36.3569 24.0504L48.2886 11.1588L48.2964 0.4752L36.3569 12.1314L36.3569 24.0504Z" fill="none" stroke="#FFFFFF" stroke-width="0.4"/><path d="M21.5015 9.1061L20.8081 9.6744L11.9004 9.6744L11.0117 10.5621L8.5977 9.5103L13.4531 8.1217L12.5938 9.1061L21.5015 9.1061" fill="#FFFFFF"/><path d="M28.5015 4.7311L27.8081 5.2994L18.9004 5.2994L18.0117 6.1871L15.5977 5.1353L20.4531 3.7467L19.5938 4.7311L28.5015 4.7311" fill="#FFFFFF"/><path d="M23.0737 7.5602L23.7651 6.9918L32.6753 6.9918L33.564 6.1041L35.978 7.1559L31.1226 8.5445L31.9819 7.5602L23.0737 7.5602" fill="#FFFFFF"/><path d="M27.6987 3.1852L28.3901 2.6168L37.3003 2.6168L38.189 1.7291L40.603 2.7809L35.7476 4.1695L36.6069 3.1852L27.6987 3.1852" fill="#FFFFFF"/></g>
<text x="344" y="362" text-anchor="start" font-family="Arial" font-size="15" font-weight="bold" fill="#333333">S1</text>
<path d="M250 382 L250 420 L130 420 L130 452" fill="none" stroke="#004a99" stroke-width="1.8"/>
<path d="M310 382 L310 420 L430 420 L430 452" fill="none" stroke="#1a7a34" stroke-width="1.8"/>
<circle cx="190" cy="420" r="11" fill="#cc0000"/><text x="190" y="424.5" text-anchor="middle" font-family="Arial" font-size="13" font-weight="bold" fill="#ffffff">1</text>
<circle cx="370" cy="420" r="11" fill="#cc0000"/><text x="370" y="424.5" text-anchor="middle" font-family="Arial" font-size="13" font-weight="bold" fill="#ffffff">5</text>
<text x="190" y="446" text-anchor="middle" font-family="Arial" font-size="12.5" font-weight="normal" fill="#6b6b6b">untagged</text>
<text x="370" y="446" text-anchor="middle" font-family="Arial" font-size="12.5" font-weight="normal" fill="#6b6b6b">untagged</text>
<g transform="translate(102.00 452.00) scale(1.48285)"><path d="M31.9771 28.6426L31.9771 22.7363L0.5034 22.7363L0.5034 28.6426L31.9771 28.6426" fill="#026C9B"/><path d="M31.9771 28.6426L31.9771 22.7363L0.5034 22.7363L0.5034 28.6426L31.9771 28.6426Z" fill="none" stroke="#FFFFFF" stroke-width="0.4"/><path d="M22.3374 26.0801L30.2759 26.0801" fill="#026C9B"/><path d="M22.3374 26.0801L30.2759 26.0801Z" fill="none" stroke="#FFFFFF" stroke-width="0.4"/><path d="M22.3374 25.7969L30.2759 25.7969" fill="#026C9B"/><path d="M22.3374 25.7969L30.2759 25.7969Z" fill="none" stroke="#FFFFFF" stroke-width="0.4"/><path d="M37.2612 23.043L37.2612 17.7588L31.9731 22.7598L31.9731 28.6426L37.2612 23.043" fill="#026C9B"/><path d="M37.2612 23.043L37.2612 17.7588L31.9731 22.7598L31.9731 28.6426L37.2612 23.043Z" fill="none" stroke="#FFFFFF" stroke-width="0.4"/><path d="M26.3872 33.4551L26.3872 32.1465L29.2466 28.1738L29.2466 30.5957L26.3872 33.4551" fill="#026C9B"/><path d="M26.3872 33.4551L26.3872 32.1465L29.2466 28.1738L29.2466 30.5957L26.3872 33.4551Z" fill="none" stroke="#FFFFFF" stroke-width="0.4"/><path d="M26.3872 32.1465L26.3872 33.4551L1.2007 33.4551L1.2007 32.1465L26.3872 32.1465" fill="#026C9B"/><path d="M26.3872 32.1465L26.3872 33.4551L1.2007 33.4551L1.2007 32.1465L26.3872 32.1465Z" fill="none" stroke="#FFFFFF" stroke-width="0.4"/><path d="M26.3872 32.1465L1.2007 32.1465L4.1147 28.1738L29.2466 28.1738L26.3872 32.1465" fill="#026C9B"/><path d="M26.3872 32.1465L1.2007 32.1465L4.1147 28.1738L29.2466 28.1738L26.3872 32.1465Z" fill="none" stroke="#FFFFFF" stroke-width="0.4"/><path d="M37.2612 17.7588L5.7778 17.7588L0.5034 22.7363L31.9771 22.7363L37.2612 17.7588" fill="#026C9B"/><path d="M37.2612 17.7588L5.7778 17.7588L0.5034 22.7363L31.9771 22.7363L37.2612 17.7588Z" fill="none" stroke="#FFFFFF" stroke-width="0.4"/><path d="M27.8335 19.8184L27.8335 3.8984L6.1333 3.8984L6.1333 19.8184L27.8335 19.8184" fill="#026C9B"/><path d="M27.8335 19.8184L27.8335 3.8984L6.1333 3.8984L6.1333 19.8184L27.8335 19.8184Z" fill="none" stroke="#FFFFFF" stroke-width="0.4"/><path d="M7.9663 7.3926C7.9663 5.7959 9.6216 5.5596 9.6216 5.5596C9.6216 5.5596 22.394 5.5596 23.9312 5.5596C25.9419 5.5596 25.8823 7.4512 25.8823 7.4512C25.8823 7.4512 25.8823 15.2568 25.8823 16.3809C25.8823 17.5039 24.3452 17.9766 24.3452 17.9766C24.3452 17.9766 11.2778 17.9766 9.8579 17.9766C8.439 17.9766 7.9663 16.498 7.9663 16.498L7.9663 7.3926" fill="#026C9B"/><path d="M7.9663 7.3926C7.9663 5.7959 9.6216 5.5596 9.6216 5.5596C9.6216 5.5596 22.394 5.5596 23.9312 5.5596C25.9419 5.5596 25.8823 7.4512 25.8823 7.4512C25.8823 7.4512 25.8823 15.2568 25.8823 16.3809C25.8823 17.5039 24.3452 17.9766 24.3452 17.9766C24.3452 17.9766 11.2778 17.9766 9.8579 17.9766C8.439 17.9766 7.9663 16.498 7.9663 16.498L7.9663 7.3926Z" fill="none" stroke="#FFFFFF" stroke-width="0.4"/><path d="M31.4702 0.4746L9.769 0.4746L6.1333 3.8984L27.8335 3.8984L31.4702 0.4746" fill="#026C9B"/><path d="M31.4702 0.4746L9.769 0.4746L6.1333 3.8984L27.8335 3.8984L31.4702 0.4746Z" fill="none" stroke="#FFFFFF" stroke-width="0.4"/><path d="M31.4712 16.4297L31.4712 0.4668L27.8696 3.8984L27.8696 19.8184L31.4712 16.4297" fill="#026C9B"/><path d="M31.4712 16.4297L31.4712 0.4668L27.8696 3.8984L27.8696 19.8184L31.4712 16.4297Z" fill="none" stroke="#FFFFFF" stroke-width="0.4"/></g>
<text x="130" y="528" text-anchor="middle" font-family="Arial" font-size="14" font-weight="bold" fill="#333333">Faculty PC</text>
<text x="130" y="546" text-anchor="middle" font-family="Arial" font-size="12.5" font-weight="normal" fill="#6b6b6b">VLAN 10  192.168.10.25</text>
<g transform="translate(402.00 452.00) scale(1.48285)"><path d="M31.9771 28.6426L31.9771 22.7363L0.5034 22.7363L0.5034 28.6426L31.9771 28.6426" fill="#026C9B"/><path d="M31.9771 28.6426L31.9771 22.7363L0.5034 22.7363L0.5034 28.6426L31.9771 28.6426Z" fill="none" stroke="#FFFFFF" stroke-width="0.4"/><path d="M22.3374 26.0801L30.2759 26.0801" fill="#026C9B"/><path d="M22.3374 26.0801L30.2759 26.0801Z" fill="none" stroke="#FFFFFF" stroke-width="0.4"/><path d="M22.3374 25.7969L30.2759 25.7969" fill="#026C9B"/><path d="M22.3374 25.7969L30.2759 25.7969Z" fill="none" stroke="#FFFFFF" stroke-width="0.4"/><path d="M37.2612 23.043L37.2612 17.7588L31.9731 22.7598L31.9731 28.6426L37.2612 23.043" fill="#026C9B"/><path d="M37.2612 23.043L37.2612 17.7588L31.9731 22.7598L31.9731 28.6426L37.2612 23.043Z" fill="none" stroke="#FFFFFF" stroke-width="0.4"/><path d="M26.3872 33.4551L26.3872 32.1465L29.2466 28.1738L29.2466 30.5957L26.3872 33.4551" fill="#026C9B"/><path d="M26.3872 33.4551L26.3872 32.1465L29.2466 28.1738L29.2466 30.5957L26.3872 33.4551Z" fill="none" stroke="#FFFFFF" stroke-width="0.4"/><path d="M26.3872 32.1465L26.3872 33.4551L1.2007 33.4551L1.2007 32.1465L26.3872 32.1465" fill="#026C9B"/><path d="M26.3872 32.1465L26.3872 33.4551L1.2007 33.4551L1.2007 32.1465L26.3872 32.1465Z" fill="none" stroke="#FFFFFF" stroke-width="0.4"/><path d="M26.3872 32.1465L1.2007 32.1465L4.1147 28.1738L29.2466 28.1738L26.3872 32.1465" fill="#026C9B"/><path d="M26.3872 32.1465L1.2007 32.1465L4.1147 28.1738L29.2466 28.1738L26.3872 32.1465Z" fill="none" stroke="#FFFFFF" stroke-width="0.4"/><path d="M37.2612 17.7588L5.7778 17.7588L0.5034 22.7363L31.9771 22.7363L37.2612 17.7588" fill="#026C9B"/><path d="M37.2612 17.7588L5.7778 17.7588L0.5034 22.7363L31.9771 22.7363L37.2612 17.7588Z" fill="none" stroke="#FFFFFF" stroke-width="0.4"/><path d="M27.8335 19.8184L27.8335 3.8984L6.1333 3.8984L6.1333 19.8184L27.8335 19.8184" fill="#026C9B"/><path d="M27.8335 19.8184L27.8335 3.8984L6.1333 3.8984L6.1333 19.8184L27.8335 19.8184Z" fill="none" stroke="#FFFFFF" stroke-width="0.4"/><path d="M7.9663 7.3926C7.9663 5.7959 9.6216 5.5596 9.6216 5.5596C9.6216 5.5596 22.394 5.5596 23.9312 5.5596C25.9419 5.5596 25.8823 7.4512 25.8823 7.4512C25.8823 7.4512 25.8823 15.2568 25.8823 16.3809C25.8823 17.5039 24.3452 17.9766 24.3452 17.9766C24.3452 17.9766 11.2778 17.9766 9.8579 17.9766C8.439 17.9766 7.9663 16.498 7.9663 16.498L7.9663 7.3926" fill="#026C9B"/><path d="M7.9663 7.3926C7.9663 5.7959 9.6216 5.5596 9.6216 5.5596C9.6216 5.5596 22.394 5.5596 23.9312 5.5596C25.9419 5.5596 25.8823 7.4512 25.8823 7.4512C25.8823 7.4512 25.8823 15.2568 25.8823 16.3809C25.8823 17.5039 24.3452 17.9766 24.3452 17.9766C24.3452 17.9766 11.2778 17.9766 9.8579 17.9766C8.439 17.9766 7.9663 16.498 7.9663 16.498L7.9663 7.3926Z" fill="none" stroke="#FFFFFF" stroke-width="0.4"/><path d="M31.4702 0.4746L9.769 0.4746L6.1333 3.8984L27.8335 3.8984L31.4702 0.4746" fill="#026C9B"/><path d="M31.4702 0.4746L9.769 0.4746L6.1333 3.8984L27.8335 3.8984L31.4702 0.4746Z" fill="none" stroke="#FFFFFF" stroke-width="0.4"/><path d="M31.4712 16.4297L31.4712 0.4668L27.8696 3.8984L27.8696 19.8184L31.4712 16.4297" fill="#026C9B"/><path d="M31.4712 16.4297L31.4712 0.4668L27.8696 3.8984L27.8696 19.8184L31.4712 16.4297Z" fill="none" stroke="#FFFFFF" stroke-width="0.4"/></g>
<text x="430" y="528" text-anchor="middle" font-family="Arial" font-size="14" font-weight="bold" fill="#333333">Lab PC</text>
<text x="430" y="546" text-anchor="middle" font-family="Arial" font-size="12.5" font-weight="normal" fill="#6b6b6b">VLAN 20  192.168.20.25</text>
<line x1="30" y1="570" x2="530" y2="570" stroke="#d9e1ea" stroke-width="1.3"/>
<circle cx="52" cy="593" r="11" fill="#cc0000"/><text x="52" y="597.5" text-anchor="middle" font-family="Arial" font-size="13" font-weight="bold" fill="#ffffff">1</text>
<text x="72" y="598" text-anchor="start" font-family="Arial" font-size="13.5" font-weight="normal" fill="#333333">Faculty PC sends an untagged frame to its gateway</text>
<circle cx="52" cy="618" r="11" fill="#cc0000"/><text x="52" y="622.5" text-anchor="middle" font-family="Arial" font-size="13" font-weight="bold" fill="#ffffff">2</text>
<text x="72" y="623" text-anchor="start" font-family="Arial" font-size="13.5" font-weight="normal" fill="#333333">S1 tags it VLAN 10 and forwards it up the trunk</text>
<circle cx="52" cy="643" r="11" fill="#cc0000"/><text x="52" y="647.5" text-anchor="middle" font-family="Arial" font-size="13" font-weight="bold" fill="#ffffff">3</text>
<text x="72" y="648" text-anchor="start" font-family="Arial" font-size="13.5" font-weight="normal" fill="#333333">R1 routes it from subinterface .10 to .20</text>
<circle cx="52" cy="668" r="11" fill="#cc0000"/><text x="52" y="672.5" text-anchor="middle" font-family="Arial" font-size="13" font-weight="bold" fill="#ffffff">4</text>
<text x="72" y="673" text-anchor="start" font-family="Arial" font-size="13.5" font-weight="normal" fill="#333333">R1 returns it down the same trunk tagged VLAN 20</text>
<circle cx="52" cy="693" r="11" fill="#cc0000"/><text x="52" y="697.5" text-anchor="middle" font-family="Arial" font-size="13" font-weight="bold" fill="#ffffff">5</text>
<text x="72" y="698" text-anchor="start" font-family="Arial" font-size="13.5" font-weight="normal" fill="#333333">S1 removes the tag and delivers it to the Lab PC</text>
</svg>
